<?xml version="1.0" encoding="UTF-8"?>
<svg version="1.1" xmlns="http://www.w3.org/2000/svg" width="569" height="398">
<path d="M0 0 C3.07799301 1.91712241 5.88864044 4.06781913 8.68359375 6.3671875 C14.18735545 10.79733382 19.81046349 15.00947211 25.55859375 19.1171875 C31.80871348 23.59108123 37.94094549 28.16794799 44.01171875 32.8828125 C48.35419002 36.23389913 52.76869838 39.48746368 57.18359375 42.7421875 C57.99989258 43.34442139 58.81619141 43.94665527 59.65722656 44.56713867 C64.69084013 48.26660924 69.7645625 51.87524265 74.9765625 55.3203125 C75.47800781 55.72765625 75.97945313 56.135 76.49609375 56.5546875 C76.49609375 57.2146875 76.49609375 57.8746875 76.49609375 58.5546875 C104.87609375 58.5546875 133.25609375 58.5546875 162.49609375 58.5546875 C162.49609375 79.6746875 162.49609375 100.7946875 162.49609375 122.5546875 C164.14609375 122.5546875 165.79609375 122.5546875 167.49609375 122.5546875 C167.82609375 123.5446875 168.15609375 124.5346875 168.49609375 125.5546875 C170.07811392 127.03341694 170.07811392 127.03341694 172.08203125 128.41796875 C172.83830811 128.96791504 173.59458496 129.51786133 174.3737793 130.08447266 C175.19789307 130.67276855 176.02200684 131.26106445 176.87109375 131.8671875 C178.61470883 133.13133734 180.35819483 134.39566523 182.1015625 135.66015625 C182.99794434 136.30645996 183.89432617 136.95276367 184.81787109 137.61865234 C188.95936941 140.61246106 193.07164654 143.64548547 197.18359375 146.6796875 C197.97362793 147.26145752 198.76366211 147.84322754 199.57763672 148.44262695 C205.21334656 152.59589755 210.82111248 156.78498707 216.41186523 160.99853516 C220.11345153 163.78367545 223.83391154 166.54045984 227.57421875 169.2734375 C228.86392578 170.21703125 228.86392578 170.21703125 230.1796875 171.1796875 C231.85197165 172.40144761 233.52635276 173.62034427 235.203125 174.8359375 C238.89788237 177.53667385 242.39758298 180.15632084 245.49609375 183.5546875 C244.6246875 183.95945313 243.75328125 184.36421875 242.85546875 184.78125 C239.47521869 186.56570759 236.7330241 188.55120592 233.74609375 190.9296875 C228.53101791 195.03210182 223.20932955 198.95051545 217.80859375 202.8046875 C211.59239292 207.25291762 205.50451696 211.82980148 199.49609375 216.5546875 C192.00033049 222.44873575 184.34272259 228.07795799 176.58203125 233.6171875 C173.72346596 235.66667304 170.86994061 237.72240037 168.03515625 239.8046875 C167.3798291 240.28421875 166.72450195 240.76375 166.04931641 241.2578125 C164.36084294 242.49190482 164.36084294 242.49190482 163.49609375 244.5546875 C163.37592703 246.52503238 163.31874042 248.49933686 163.29077148 250.47314453 C163.27082626 251.71428009 163.25088104 252.95541565 163.23033142 254.23416138 C163.21334715 255.5936063 163.19646834 256.95305255 163.1796875 258.3125 C163.15911794 259.69970317 163.13812147 261.08690007 163.11671448 262.47409058 C163.06149394 266.12696255 163.01208464 269.77989109 162.96386719 273.43286133 C162.913652 277.15971924 162.85796604 280.88649491 162.80273438 284.61328125 C162.69515304 291.92701371 162.59370807 299.24081451 162.49609375 306.5546875 C161.4386647 306.5516713 160.38123566 306.54865509 159.29176331 306.54554749 C149.30206527 306.52162142 139.31299655 306.53456826 129.32338047 306.58315372 C124.18812049 306.60695702 119.05350815 306.617994 113.91821289 306.59936523 C108.95758859 306.58184796 103.99812489 306.59850584 99.03764153 306.63836479 C97.14995256 306.64762325 95.26216241 306.64479017 93.37451363 306.62938118 C80.05658669 306.23920621 80.05658669 306.23920621 68.96788025 312.85984802 C68.4821907 313.41914505 67.99650116 313.97844208 67.49609375 314.5546875 C66.83609375 315.2146875 66.17609375 315.8746875 65.49609375 316.5546875 C64.78453125 317.2971875 64.78453125 317.2971875 64.05859375 318.0546875 C62.49609375 319.5546875 62.49609375 319.5546875 59.49609375 321.5546875 C59.16609375 322.2146875 58.83609375 322.8746875 58.49609375 323.5546875 C57.18356493 324.26143379 55.84330658 324.91653406 54.49609375 325.5546875 C49.67880167 328.09471424 46.2271687 330.50380612 42.49609375 334.5546875 C40.49609375 336.5546875 40.49609375 336.5546875 38.22265625 337.4140625 C34.95778885 338.77988095 32.63995463 340.59836564 29.87109375 342.8046875 C24.14147908 347.31632254 18.31301435 351.67769568 12.43359375 355.9921875 C11.20165283 356.89662598 11.20165283 356.89662598 9.94482422 357.81933594 C8.45970755 358.90942571 6.97417147 359.99894454 5.48803711 361.08764648 C3.44096225 362.53607338 3.44096225 362.53607338 1.55297852 364.36743164 C-0.50390625 365.5546875 -0.50390625 365.5546875 -2.97583008 364.94458008 C-5.49495063 363.55961114 -7.68801434 362.08518284 -9.953125 360.31640625 C-10.79166016 359.66800781 -11.63019531 359.01960938 -12.49414062 358.3515625 C-13.82928711 357.30742188 -13.82928711 357.30742188 -15.19140625 356.2421875 C-21.88761206 351.06847769 -28.61402654 345.96780289 -35.50390625 341.0546875 C-42.21953292 336.25371924 -48.82037285 331.31808378 -55.37890625 326.3046875 C-56.26618408 325.62664062 -57.15346191 324.94859375 -58.06762695 324.25 C-61.23567126 321.82652184 -64.40234117 319.40128241 -67.56494141 316.97070312 C-69.27062276 315.6611829 -70.98035128 314.3571724 -72.69140625 313.0546875 C-73.59246094 312.36375 -74.49351562 311.6728125 -75.421875 310.9609375 C-77.36139378 309.36811645 -77.36139378 309.36811645 -79.50390625 309.5546875 C-79.83390625 308.8946875 -80.16390625 308.2346875 -80.50390625 307.5546875 C-108.55390625 307.2246875 -136.60390625 306.8946875 -165.50390625 306.5546875 C-166.61501736 263.22135417 -166.61501736 263.22135417 -165.7578125 248.8984375 C-165.9950016 245.0679366 -167.08296967 243.47781775 -169.91796875 240.921875 C-171.42672769 239.77288547 -172.95681948 238.65152523 -174.50390625 237.5546875 C-175.2930542 236.94850586 -176.08220215 236.34232422 -176.89526367 235.71777344 C-179.34488319 233.83688123 -181.82463222 232.0042652 -184.31640625 230.1796875 C-185.16138672 229.55191406 -186.00636719 228.92414063 -186.87695312 228.27734375 C-188.09415039 227.38208984 -188.09415039 227.38208984 -189.3359375 226.46875 C-190.06530518 225.9320166 -190.79467285 225.3952832 -191.54614258 224.84228516 C-193.57375366 223.38857699 -193.57375366 223.38857699 -196.50390625 222.5546875 C-198.17057292 220.88802083 -199.83723958 219.22135417 -201.50390625 217.5546875 C-206.59663712 213.34398906 -206.59663712 213.34398906 -212.50390625 210.5546875 C-213.6509198 209.39707309 -214.79520664 208.23660741 -215.92431641 207.06152344 C-219.22144402 203.91625734 -223.00952171 201.35120447 -226.69140625 198.6796875 C-227.95754761 197.74987061 -227.95754761 197.74987061 -229.24926758 196.80126953 C-234.39634332 193.03424635 -239.58728375 189.38628942 -244.984375 185.984375 C-245.48582031 185.51257813 -245.98726562 185.04078125 -246.50390625 184.5546875 C-246.50390625 180.5546875 -246.50390625 180.5546875 -244.96606445 178.97412109 C-244.25281006 178.47219238 -243.53955566 177.97026367 -242.8046875 177.453125 C-242.01312256 176.88480957 -241.22155762 176.31649414 -240.40600586 175.73095703 C-239.12415405 174.83932861 -239.12415405 174.83932861 -237.81640625 173.9296875 C-236.0732821 172.68620779 -234.33109899 171.44140791 -232.58984375 170.1953125 C-231.72713867 169.58236328 -230.86443359 168.96941406 -229.97558594 168.33789062 C-225.50274842 165.11094424 -221.19704967 161.67460496 -216.875 158.25 C-214.50390625 156.5546875 -214.50390625 156.5546875 -212.50390625 156.5546875 C-212.50390625 155.8946875 -212.50390625 155.2346875 -212.50390625 154.5546875 C-210.81640625 153.2578125 -210.81640625 153.2578125 -208.50390625 151.8046875 C-203.25544555 148.4217934 -197.93415285 144.9849341 -193.50390625 140.5546875 C-192.84390625 139.8946875 -192.18390625 139.2346875 -191.50390625 138.5546875 C-190.51390625 138.5546875 -189.52390625 138.5546875 -188.50390625 138.5546875 C-188.17390625 137.5646875 -187.84390625 136.5746875 -187.50390625 135.5546875 C-185.83667258 134.56638958 -184.16351458 133.58606266 -182.45556641 132.66992188 C-179.29240016 130.86239831 -176.52662175 128.58079983 -173.69140625 126.3046875 C-167.77392029 121.5546875 -167.77392029 121.5546875 -165.50390625 121.5546875 C-165.50390625 100.7646875 -165.50390625 79.9746875 -165.50390625 58.5546875 C-154.49015625 58.3071875 -154.49015625 58.3071875 -143.25390625 58.0546875 C-140.83715576 57.9930542 -138.42040527 57.9314209 -135.93041992 57.86791992 C-125.88715998 57.62383143 -115.90357555 57.47125747 -105.8671875 57.98046875 C-86.70318726 59.32805089 -86.70318726 59.32805089 -69.94140625 51.0546875 C-67.92688485 49.17989763 -66.00914787 47.26266228 -64.13232422 45.25048828 C-61.96820673 42.99682111 -59.5733752 41.25989051 -57.00390625 39.4921875 C-56.16085938 38.88632812 -55.3178125 38.28046875 -54.44921875 37.65625 C-53.47726563 36.96273437 -52.5053125 36.26921875 -51.50390625 35.5546875 C-42.4941359 29.11004107 -33.53032876 22.62754038 -24.75390625 15.8671875 C-22.67796096 14.27814487 -20.60097868 12.69047107 -18.5234375 11.10351562 C-17.17330174 10.06806334 -15.82695102 9.02765756 -14.484375 7.98242188 C-12.58691199 6.50973609 -10.67319044 5.06125692 -8.75390625 3.6171875 C-7.91327637 2.9516687 -7.91327637 2.9516687 -7.05566406 2.27270508 C-4.52206171 0.39804054 -3.17726699 -0.56506776 0 0 Z " fill="#080706" transform="translate(285.50390625,16.4453125)"/>
<path d="M0 0 C99.33 0 198.66 0 301 0 C301 52.47 301 104.94 301 159 C201.67 159 102.34 159 0 159 C0 106.53 0 54.06 0 0 Z " fill="#861C15" transform="translate(133,136)"/>
<path d="M0 0 C3.07799301 1.91712241 5.88864044 4.06781913 8.68359375 6.3671875 C14.18735545 10.79733382 19.81046349 15.00947211 25.55859375 19.1171875 C31.80871348 23.59108123 37.94094549 28.16794799 44.01171875 32.8828125 C48.35419002 36.23389913 52.76869838 39.48746368 57.18359375 42.7421875 C57.99989258 43.34442139 58.81619141 43.94665527 59.65722656 44.56713867 C64.69084013 48.26660924 69.7645625 51.87524265 74.9765625 55.3203125 C75.47800781 55.72765625 75.97945313 56.135 76.49609375 56.5546875 C76.49609375 57.2146875 76.49609375 57.8746875 76.49609375 58.5546875 C104.87609375 58.5546875 133.25609375 58.5546875 162.49609375 58.5546875 C162.49609375 79.6746875 162.49609375 100.7946875 162.49609375 122.5546875 C164.14609375 122.5546875 165.79609375 122.5546875 167.49609375 122.5546875 C167.82609375 123.5446875 168.15609375 124.5346875 168.49609375 125.5546875 C170.07811392 127.03341694 170.07811392 127.03341694 172.08203125 128.41796875 C172.83830811 128.96791504 173.59458496 129.51786133 174.3737793 130.08447266 C175.19789307 130.67276855 176.02200684 131.26106445 176.87109375 131.8671875 C178.61470883 133.13133734 180.35819483 134.39566523 182.1015625 135.66015625 C182.99794434 136.30645996 183.89432617 136.95276367 184.81787109 137.61865234 C188.95936941 140.61246106 193.07164654 143.64548547 197.18359375 146.6796875 C197.97362793 147.26145752 198.76366211 147.84322754 199.57763672 148.44262695 C205.21334656 152.59589755 210.82111248 156.78498707 216.41186523 160.99853516 C220.11345153 163.78367545 223.83391154 166.54045984 227.57421875 169.2734375 C228.86392578 170.21703125 228.86392578 170.21703125 230.1796875 171.1796875 C231.85197165 172.40144761 233.52635276 173.62034427 235.203125 174.8359375 C238.89788237 177.53667385 242.39758298 180.15632084 245.49609375 183.5546875 C244.6246875 183.95945313 243.75328125 184.36421875 242.85546875 184.78125 C239.47521869 186.56570759 236.7330241 188.55120592 233.74609375 190.9296875 C228.53101791 195.03210182 223.20932955 198.95051545 217.80859375 202.8046875 C211.59239292 207.25291762 205.50451696 211.82980148 199.49609375 216.5546875 C192.00033049 222.44873575 184.34272259 228.07795799 176.58203125 233.6171875 C173.72346596 235.66667304 170.86994061 237.72240037 168.03515625 239.8046875 C167.3798291 240.28421875 166.72450195 240.76375 166.04931641 241.2578125 C164.36084294 242.49190482 164.36084294 242.49190482 163.49609375 244.5546875 C163.37592703 246.52503238 163.31874042 248.49933686 163.29077148 250.47314453 C163.27082626 251.71428009 163.25088104 252.95541565 163.23033142 254.23416138 C163.21334715 255.5936063 163.19646834 256.95305255 163.1796875 258.3125 C163.15911794 259.69970317 163.13812147 261.08690007 163.11671448 262.47409058 C163.06149394 266.12696255 163.01208464 269.77989109 162.96386719 273.43286133 C162.913652 277.15971924 162.85796604 280.88649491 162.80273438 284.61328125 C162.69515304 291.92701371 162.59370807 299.24081451 162.49609375 306.5546875 C161.4386647 306.5516713 160.38123566 306.54865509 159.29176331 306.54554749 C149.30206527 306.52162142 139.31299655 306.53456826 129.32338047 306.58315372 C124.18812049 306.60695702 119.05350815 306.617994 113.91821289 306.59936523 C108.95758859 306.58184796 103.99812489 306.59850584 99.03764153 306.63836479 C97.14995256 306.64762325 95.26216241 306.64479017 93.37451363 306.62938118 C80.05658669 306.23920621 80.05658669 306.23920621 68.96788025 312.85984802 C68.4821907 313.41914505 67.99650116 313.97844208 67.49609375 314.5546875 C66.83609375 315.2146875 66.17609375 315.8746875 65.49609375 316.5546875 C64.78453125 317.2971875 64.78453125 317.2971875 64.05859375 318.0546875 C62.49609375 319.5546875 62.49609375 319.5546875 59.49609375 321.5546875 C59.16609375 322.2146875 58.83609375 322.8746875 58.49609375 323.5546875 C57.18356493 324.26143379 55.84330658 324.91653406 54.49609375 325.5546875 C49.67880167 328.09471424 46.2271687 330.50380612 42.49609375 334.5546875 C40.49609375 336.5546875 40.49609375 336.5546875 38.22265625 337.4140625 C34.95778885 338.77988095 32.63995463 340.59836564 29.87109375 342.8046875 C24.14147908 347.31632254 18.31301435 351.67769568 12.43359375 355.9921875 C11.20165283 356.89662598 11.20165283 356.89662598 9.94482422 357.81933594 C8.45970755 358.90942571 6.97417147 359.99894454 5.48803711 361.08764648 C3.44096225 362.53607338 3.44096225 362.53607338 1.55297852 364.36743164 C-0.50390625 365.5546875 -0.50390625 365.5546875 -2.97583008 364.94458008 C-5.49495063 363.55961114 -7.68801434 362.08518284 -9.953125 360.31640625 C-10.79166016 359.66800781 -11.63019531 359.01960938 -12.49414062 358.3515625 C-13.82928711 357.30742188 -13.82928711 357.30742188 -15.19140625 356.2421875 C-21.88761206 351.06847769 -28.61402654 345.96780289 -35.50390625 341.0546875 C-42.21953292 336.25371924 -48.82037285 331.31808378 -55.37890625 326.3046875 C-56.26618408 325.62664062 -57.15346191 324.94859375 -58.06762695 324.25 C-61.23567126 321.82652184 -64.40234117 319.40128241 -67.56494141 316.97070312 C-69.27062276 315.6611829 -70.98035128 314.3571724 -72.69140625 313.0546875 C-73.59246094 312.36375 -74.49351562 311.6728125 -75.421875 310.9609375 C-77.36139378 309.36811645 -77.36139378 309.36811645 -79.50390625 309.5546875 C-79.83390625 308.8946875 -80.16390625 308.2346875 -80.50390625 307.5546875 C-108.55390625 307.2246875 -136.60390625 306.8946875 -165.50390625 306.5546875 C-166.61501736 263.22135417 -166.61501736 263.22135417 -165.7578125 248.8984375 C-165.9950016 245.0679366 -167.08296967 243.47781775 -169.91796875 240.921875 C-171.42672769 239.77288547 -172.95681948 238.65152523 -174.50390625 237.5546875 C-175.2930542 236.94850586 -176.08220215 236.34232422 -176.89526367 235.71777344 C-179.34488319 233.83688123 -181.82463222 232.0042652 -184.31640625 230.1796875 C-185.16138672 229.55191406 -186.00636719 228.92414063 -186.87695312 228.27734375 C-188.09415039 227.38208984 -188.09415039 227.38208984 -189.3359375 226.46875 C-190.06530518 225.9320166 -190.79467285 225.3952832 -191.54614258 224.84228516 C-193.57375366 223.38857699 -193.57375366 223.38857699 -196.50390625 222.5546875 C-198.17057292 220.88802083 -199.83723958 219.22135417 -201.50390625 217.5546875 C-206.59663712 213.34398906 -206.59663712 213.34398906 -212.50390625 210.5546875 C-213.6509198 209.39707309 -214.79520664 208.23660741 -215.92431641 207.06152344 C-219.22144402 203.91625734 -223.00952171 201.35120447 -226.69140625 198.6796875 C-227.95754761 197.74987061 -227.95754761 197.74987061 -229.24926758 196.80126953 C-234.39634332 193.03424635 -239.58728375 189.38628942 -244.984375 185.984375 C-245.48582031 185.51257813 -245.98726562 185.04078125 -246.50390625 184.5546875 C-246.50390625 180.5546875 -246.50390625 180.5546875 -244.96606445 178.97412109 C-244.25281006 178.47219238 -243.53955566 177.97026367 -242.8046875 177.453125 C-242.01312256 176.88480957 -241.22155762 176.31649414 -240.40600586 175.73095703 C-239.12415405 174.83932861 -239.12415405 174.83932861 -237.81640625 173.9296875 C-236.0732821 172.68620779 -234.33109899 171.44140791 -232.58984375 170.1953125 C-231.72713867 169.58236328 -230.86443359 168.96941406 -229.97558594 168.33789062 C-225.50274842 165.11094424 -221.19704967 161.67460496 -216.875 158.25 C-214.50390625 156.5546875 -214.50390625 156.5546875 -212.50390625 156.5546875 C-212.50390625 155.8946875 -212.50390625 155.2346875 -212.50390625 154.5546875 C-210.81640625 153.2578125 -210.81640625 153.2578125 -208.50390625 151.8046875 C-203.25544555 148.4217934 -197.93415285 144.9849341 -193.50390625 140.5546875 C-192.84390625 139.8946875 -192.18390625 139.2346875 -191.50390625 138.5546875 C-190.51390625 138.5546875 -189.52390625 138.5546875 -188.50390625 138.5546875 C-188.17390625 137.5646875 -187.84390625 136.5746875 -187.50390625 135.5546875 C-185.83667258 134.56638958 -184.16351458 133.58606266 -182.45556641 132.66992188 C-179.29240016 130.86239831 -176.52662175 128.58079983 -173.69140625 126.3046875 C-167.77392029 121.5546875 -167.77392029 121.5546875 -165.50390625 121.5546875 C-165.50390625 100.7646875 -165.50390625 79.9746875 -165.50390625 58.5546875 C-154.49015625 58.3071875 -154.49015625 58.3071875 -143.25390625 58.0546875 C-140.83715576 57.9930542 -138.42040527 57.9314209 -135.93041992 57.86791992 C-125.88715998 57.62383143 -115.90357555 57.47125747 -105.8671875 57.98046875 C-86.70318726 59.32805089 -86.70318726 59.32805089 -69.94140625 51.0546875 C-67.92688485 49.17989763 -66.00914787 47.26266228 -64.13232422 45.25048828 C-61.96820673 42.99682111 -59.5733752 41.25989051 -57.00390625 39.4921875 C-56.16085938 38.88632812 -55.3178125 38.28046875 -54.44921875 37.65625 C-53.47726563 36.96273437 -52.5053125 36.26921875 -51.50390625 35.5546875 C-42.4941359 29.11004107 -33.53032876 22.62754038 -24.75390625 15.8671875 C-22.67796096 14.27814487 -20.60097868 12.69047107 -18.5234375 11.10351562 C-17.17330174 10.06806334 -15.82695102 9.02765756 -14.484375 7.98242188 C-12.58691199 6.50973609 -10.67319044 5.06125692 -8.75390625 3.6171875 C-7.91327637 2.9516687 -7.91327637 2.9516687 -7.05566406 2.27270508 C-4.52206171 0.39804054 -3.17726699 -0.56506776 0 0 Z M-161.50390625 63.5546875 C-161.50390625 142.0946875 -161.50390625 220.6346875 -161.50390625 301.5546875 C-55.90390625 301.5546875 49.69609375 301.5546875 158.49609375 301.5546875 C158.49609375 223.0146875 158.49609375 144.4746875 158.49609375 63.5546875 C52.89609375 63.5546875 -52.70390625 63.5546875 -161.50390625 63.5546875 Z " fill="#FBFAF9" transform="translate(285.50390625,16.4453125)"/>
<path d="M0 0 C0 40.59 0 81.18 0 123 C-4.45664009 119.65751994 -8.90185982 116.32300836 -13.3046875 112.9140625 C-14.21734375 112.21152344 -15.13 111.50898438 -16.0703125 110.78515625 C-17.96614844 109.32499291 -19.85931273 107.86135521 -21.75 106.39453125 C-22.65492187 105.69972656 -23.55984375 105.00492187 -24.4921875 104.2890625 C-25.31058105 103.65693848 -26.12897461 103.02481445 -26.97216797 102.37353516 C-28.86777874 100.81306531 -28.86777874 100.81306531 -31 101 C-32.15498388 99.84501612 -33.30632276 98.68612213 -34.4375 97.5078125 C-38.113514 93.96045899 -42.13530518 90.62156494 -47 89 C-48.14701355 87.84238559 -49.29130039 86.68191991 -50.42041016 85.50683594 C-53.71753777 82.36156984 -57.50561546 79.79651697 -61.1875 77.125 C-62.03159424 76.50512207 -62.87568848 75.88524414 -63.74536133 75.24658203 C-68.89243707 71.47955885 -74.0833775 67.83160192 -79.48046875 64.4296875 C-79.98191406 63.95789063 -80.48335937 63.48609375 -81 63 C-81 59 -81 59 -79.4621582 57.41943359 C-78.39227661 56.66654053 -78.39227661 56.66654053 -77.30078125 55.8984375 C-76.50921631 55.33012207 -75.71765137 54.76180664 -74.90209961 54.17626953 C-74.04753174 53.58185059 -73.19296387 52.98743164 -72.3125 52.375 C-70.56937585 51.13152029 -68.82719274 49.88672041 -67.0859375 48.640625 C-66.22323242 48.02767578 -65.36052734 47.41472656 -64.47167969 46.78320312 C-59.99884217 43.55625674 -55.69314342 40.11991746 -51.37109375 36.6953125 C-49 35 -49 35 -47 35 C-47 34.34 -47 33.68 -47 33 C-45.3125 31.703125 -45.3125 31.703125 -43 30.25 C-37.7515393 26.8671059 -32.4302466 23.4302466 -28 19 C-27.34 18.34 -26.68 17.68 -26 17 C-25.01 17 -24.02 17 -23 17 C-22.505 15.515 -22.505 15.515 -22 14 C-20.33276633 13.01170208 -18.65960833 12.03137516 -16.95166016 11.11523438 C-13.78849391 9.30771081 -11.0227155 7.02611233 -8.1875 4.75 C-2.27001404 0 -2.27001404 0 0 0 Z " fill="#48518D" transform="translate(120,138)"/>
<path d="M0 0 C1.65 0 3.3 0 5 0 C5.33 0.99 5.66 1.98 6 3 C7.58202017 4.47872944 7.58202017 4.47872944 9.5859375 5.86328125 C10.34221436 6.41322754 11.09849121 6.96317383 11.87768555 7.52978516 C12.70179932 8.11808105 13.52591309 8.70637695 14.375 9.3125 C16.11861508 10.57664984 17.86210108 11.84097773 19.60546875 13.10546875 C20.50185059 13.75177246 21.39823242 14.39807617 22.32177734 15.06396484 C26.46327566 18.05777356 30.57555279 21.09079797 34.6875 24.125 C35.47753418 24.70677002 36.26756836 25.28854004 37.08154297 25.88793945 C42.71725281 30.04121005 48.32501873 34.23029957 53.91577148 38.44384766 C57.61735778 41.22898795 61.33781779 43.98577234 65.078125 46.71875 C65.93792969 47.3478125 66.79773438 47.976875 67.68359375 48.625 C69.3558779 49.84676011 71.03025901 51.06565677 72.70703125 52.28125 C76.40178862 54.98198635 79.90148923 57.60163334 83 61 C81.69289063 61.60714844 81.69289063 61.60714844 80.359375 62.2265625 C76.97912494 64.01102009 74.23693035 65.99651842 71.25 68.375 C66.03492416 72.47741432 60.7132358 76.39582795 55.3125 80.25 C49.09629917 84.69823012 43.00842321 89.27511398 37 94 C29.50423674 99.89404825 21.84662884 105.52327049 14.0859375 111.0625 C6.73266907 116.15680676 6.73266907 116.15680676 0 122 C0 81.74 0 41.48 0 0 Z " fill="#464F8C" transform="translate(448,139)"/>
<path d="M0 0 C11.08037467 -0.5648167 17.01954401 2.37263859 25.13769531 9.4375 C28.637497 12.37388317 32.36650139 15.00572767 36.0625 17.6875 C43.66240316 23.2543812 51.20873165 28.88907309 58.71118164 34.58666992 C65.3553181 39.60186701 72.13452989 44.24698223 79 49 C79 33.16 79 17.32 79 1 C104.74 1 130.48 1 157 1 C151.41666667 6.58333333 151.41666667 6.58333333 148.875 8.625 C146.13283149 10.8138384 146.13283149 10.8138384 144.3125 12.6875 C143 14 143 14 140 16 C139.67 16.66 139.34 17.32 139 18 C137.68747118 18.70674629 136.34721283 19.36184656 135 20 C130.18270792 22.54002674 126.73107495 24.94911862 123 29 C121 31 121 31 118.7265625 31.859375 C115.4616951 33.22519345 113.14386088 35.04367814 110.375 37.25 C104.64538533 41.76163504 98.8169206 46.12300818 92.9375 50.4375 C92.11620605 51.04045898 91.29491211 51.64341797 90.44873047 52.26464844 C88.9636138 53.35473821 87.47807772 54.44425704 85.99194336 55.53295898 C83.9448685 56.98138588 83.9448685 56.98138588 82.05688477 58.81274414 C80 60 80 60 77.52807617 59.38989258 C75.00895562 58.00492364 72.81589191 56.53049534 70.55078125 54.76171875 C69.71224609 54.11332031 68.87371094 53.46492188 68.00976562 52.796875 C67.11966797 52.10078125 66.22957031 51.4046875 65.3125 50.6875 C58.61629419 45.51379019 51.88987971 40.41311539 45 35.5 C38.28437333 30.69903174 31.6835334 25.76339628 25.125 20.75 C24.23772217 20.07195312 23.35044434 19.39390625 22.4362793 18.6953125 C19.26823499 16.27183434 16.10156508 13.84659491 12.93896484 11.41601562 C11.23328349 10.1064954 9.52355497 8.8024849 7.8125 7.5 C6.91144531 6.8090625 6.01039063 6.118125 5.08203125 5.40625 C3.14251247 3.81342895 3.14251247 3.81342895 1 4 C0.67 2.68 0.34 1.36 0 0 Z " fill="#861B12" transform="translate(205,322)"/>
<path d="M0 0 C2.91911155 2.08369194 5.76637529 4.21044451 8.53515625 6.48828125 C14.03891795 10.91842757 19.66202599 15.13056586 25.41015625 19.23828125 C31.66027598 23.71217498 37.79250799 28.28904174 43.86328125 33.00390625 C48.20575252 36.35499288 52.62026088 39.60855743 57.03515625 42.86328125 C57.85145508 43.46551514 58.66775391 44.06774902 59.50878906 44.68823242 C64.54240263 48.38770299 69.616125 51.9963364 74.828125 55.44140625 C75.32957031 55.84875 75.83101562 56.25609375 76.34765625 56.67578125 C76.34765625 57.33578125 76.34765625 57.99578125 76.34765625 58.67578125 C67.59651177 59.60988246 62.22701357 58.94970124 55.29760742 53.39355469 C54.44787354 52.66168945 53.59813965 51.92982422 52.72265625 51.17578125 C50.89367538 49.69085648 49.0642537 48.20647448 47.234375 46.72265625 C46.38149902 46.01302734 45.52862305 45.30339844 44.64990234 44.57226562 C42.01445538 42.40130571 39.32116872 40.39832865 36.53515625 38.42578125 C33.57649416 36.30113572 30.64111552 34.15193229 27.734375 31.95703125 C27.07219971 31.45719727 26.41002441 30.95736328 25.7277832 30.44238281 C24.47326925 29.4935163 23.22025205 28.54266394 21.96948242 27.58886719 C14.23484517 21.74115042 6.2833884 16.27747453 -1.65234375 10.67578125 C-1.65234375 26.51578125 -1.65234375 42.35578125 -1.65234375 58.67578125 C-27.72234375 58.67578125 -53.79234375 58.67578125 -80.65234375 58.67578125 C-75.02682446 53.05026196 -75.02682446 53.05026196 -72.33203125 51.0546875 C-71.72447998 50.60174316 -71.11692871 50.14879883 -70.4909668 49.68212891 C-69.84297119 49.20565918 -69.19497559 48.72918945 -68.52734375 48.23828125 C-67.83358643 47.72313965 -67.1398291 47.20799805 -66.42504883 46.67724609 C-64.17081362 45.0055323 -61.91195038 43.34022577 -59.65234375 41.67578125 C-58.11711864 40.54175989 -56.58196288 39.40764462 -55.046875 38.2734375 C-51.05983597 35.33038521 -47.06836352 32.39340108 -43.07568359 29.45800781 C-39.88782693 27.11352326 -36.70194058 24.76637763 -33.51733398 22.41748047 C-31.94966709 21.26297075 -30.3801855 20.11092082 -28.80883789 18.96142578 C-24.6308288 15.9002415 -20.49860191 12.79335137 -16.41015625 9.61328125 C-15.55099609 8.95457031 -14.69183594 8.29585937 -13.80664062 7.6171875 C-12.1532655 6.34811037 -10.51073551 5.06474388 -8.88085938 3.765625 C-3.39139224 -0.41455899 -3.39139224 -0.41455899 0 0 Z " fill="#881B13" transform="translate(285.65234375,16.32421875)"/>
<path d="M0 0 C4.94190189 2.3361718 7.38917273 5.24990476 10 10 C10.53943096 12.93050234 10.50745387 15.78656738 10.45410156 18.75927734 C10.45468567 19.61846771 10.45526978 20.47765808 10.45587158 21.36288452 C10.45309676 24.18765418 10.42203363 27.01135341 10.390625 29.8359375 C10.38316046 31.80033797 10.37746853 33.7647459 10.37347412 35.72915649 C10.35823459 40.8881299 10.31896711 46.04664962 10.2746582 51.20544434 C10.23366931 56.47414005 10.21545537 61.74290939 10.1953125 67.01171875 C10.15247135 77.34134467 10.08424026 87.67063454 10 98 C7.36 98 4.72 98 2 98 C2 83.15 2 68.3 2 53 C-2.62 53 -7.24 53 -12 53 C-12 67.85 -12 82.7 -12 98 C-14.64 98 -17.28 98 -20 98 C-20 83.15 -20 68.3 -20 53 C-21.32 53 -22.64 53 -24 53 C-24 50.36 -24 47.72 -24 45 C-22.68 45 -21.36 45 -20 45 C-20.02094727 43.97116699 -20.04189453 42.94233398 -20.06347656 41.88232422 C-20.13614994 38.04701787 -20.18189821 34.21177178 -20.21972656 30.37597656 C-20.23978009 28.71929675 -20.26703029 27.06268718 -20.30175781 25.40625 C-20.35055512 23.01805242 -20.37303064 20.63079453 -20.390625 18.2421875 C-20.41127014 17.50757294 -20.43191528 16.77295837 -20.45318604 16.01608276 C-20.45594981 9.61012488 -17.998934 6.30180279 -13.9375 1.625 C-9.39025114 -0.89049937 -5.07641098 -0.73160041 0 0 Z " fill="#F7F1F0" transform="translate(167,149)"/>
<path d="M0 0 C21.45 0 42.9 0 65 0 C65 15.84 65 31.68 65 48 C60.52540915 46.21016366 58.06105713 44.68717481 54.375 41.75 C48.88906472 37.43348794 43.3176048 33.25162701 37.6875 29.125 C30.32222911 23.71792968 22.99074011 18.26915418 15.69140625 12.7734375 C13.24872079 10.93452588 10.79829393 9.10684176 8.33984375 7.2890625 C7.49087524 6.65931519 7.49087524 6.65931519 6.62475586 6.0168457 C5.10550867 4.890708 3.58408436 3.76750907 2.0625 2.64453125 C1.381875 2.10183594 0.70125 1.55914062 0 1 C0 0.67 0 0.34 0 0 Z " fill="#EF9068" transform="translate(219,323)"/>
<path d="M0 0 C4.47459085 1.78983634 6.93894287 3.31282519 10.625 6.25 C16.08767353 10.54974026 21.63950059 14.70767196 27.25 18.8125 C34.26956004 23.95811705 41.21485274 29.18939022 48.11010742 34.50024414 C53.06532098 38.30980521 58.08796389 41.99980804 63.19140625 45.609375 C63.78824219 46.06828125 64.38507813 46.5271875 65 47 C65 47.33 65 47.66 65 48 C43.55 48 22.1 48 0 48 C0 32.16 0 16.32 0 0 Z " fill="#F38F66" transform="translate(284,27)"/>
<path d="M0 0 C0.55072558 3.4717566 0.70123333 6.54129952 0 10 C-2.43901022 13.06076282 -5.4722724 14.96946359 -8.75 17.0625 C-10.50419369 18.26260079 -12.25810032 19.46312129 -14.01171875 20.6640625 C-14.86942871 21.23415039 -15.72713867 21.80423828 -16.61083984 22.39160156 C-19.68929024 24.46403476 -22.61943976 26.67716802 -25.5625 28.9375 C-40.29178371 40 -40.29178371 40 -43 40 C-43 40.66 -43 41.32 -43 42 C-44.68066406 43.46459961 -44.68066406 43.46459961 -47.015625 45.15234375 C-47.85480469 45.76400391 -48.69398437 46.37566406 -49.55859375 47.00585938 C-50.44675781 47.64330078 -51.33492187 48.28074219 -52.25 48.9375 C-53.55904297 49.88786133 -53.55904297 49.88786133 -54.89453125 50.85742188 C-56.52808337 52.04330589 -58.16362948 53.22645129 -59.80175781 54.40600586 C-61.27667028 55.47549759 -62.72945961 56.57612793 -64.15917969 57.70532227 C-66 59 -66 59 -68 59 C-68 59.66 -68 60.32 -68 61 C-67.46503906 61.24234375 -66.93007812 61.4846875 -66.37890625 61.734375 C-63.38146729 63.32907159 -60.68128873 65.26294173 -57.9375 67.25 C-57.33824707 67.68111084 -56.73899414 68.11222168 -56.12158203 68.55639648 C-43.64307144 77.56093771 -31.28947962 86.73961747 -19 96 C-16.89646665 97.58417462 -14.7922969 99.16750456 -12.6875 100.75 C-11.70652344 101.49894531 -10.72554688 102.24789062 -9.71484375 103.01953125 C-7.44373046 104.67630022 -5.18096241 106.04348735 -2.75 107.4375 C0 110 0 110 0.41796875 112.5234375 C0.43571754 115.05796508 0.30756348 117.4857906 0 120 C-3.04898397 118.58012579 -5.64370267 116.89448239 -8.3359375 114.8828125 C-9.15320313 114.27566406 -9.97046875 113.66851562 -10.8125 113.04296875 C-11.658125 112.41003906 -12.50375 111.77710938 -13.375 111.125 C-18.51188914 107.29209041 -23.6415484 103.51697782 -29 100 C-32.89058486 97.20364213 -36.67694217 94.30884742 -40.3125 91.1875 C-42.86085624 88.84992437 -42.86085624 88.84992437 -46 88 C-47.14701355 86.84238559 -48.29130039 85.68191991 -49.42041016 84.50683594 C-52.71753777 81.36156984 -56.50561546 78.79651697 -60.1875 76.125 C-61.03159424 75.50512207 -61.87568848 74.88524414 -62.74536133 74.24658203 C-67.89243707 70.47955885 -73.0833775 66.83160192 -78.48046875 63.4296875 C-78.98191406 62.95789063 -79.48335937 62.48609375 -80 62 C-80 58 -80 58 -78.4621582 56.41943359 C-77.39227661 55.66654053 -77.39227661 55.66654053 -76.30078125 54.8984375 C-75.50921631 54.33012207 -74.71765137 53.76180664 -73.90209961 53.17626953 C-73.04753174 52.58185059 -72.19296387 51.98743164 -71.3125 51.375 C-69.56937585 50.13152029 -67.82719274 48.88672041 -66.0859375 47.640625 C-65.22323242 47.02767578 -64.36052734 46.41472656 -63.47167969 45.78320312 C-58.99884217 42.55625674 -54.69314342 39.11991746 -50.37109375 35.6953125 C-48 34 -48 34 -46 34 C-46 33.34 -46 32.68 -46 32 C-44.3125 30.703125 -44.3125 30.703125 -42 29.25 C-36.7515393 25.8671059 -31.4302466 22.4302466 -27 18 C-26.34 17.34 -25.68 16.68 -25 16 C-24.01 16 -23.02 16 -22 16 C-21.67 15.01 -21.34 14.02 -21 13 C-19.45049321 12.10472941 -17.89424086 11.21981704 -16.3125 10.3828125 C-12.15037563 7.89397462 -8.39723528 4.80211528 -4.57421875 1.828125 C-2 0 -2 0 0 0 Z " fill="#0A0A0E" transform="translate(119,139)"/>
<path d="M0 0 C11.08037467 -0.5648167 17.01954401 2.37263859 25.13769531 9.4375 C28.63751198 12.37389574 32.36661898 15.00553991 36.0625 17.6875 C42.88452654 22.68912696 49.67162684 27.73521686 56.4375 32.8125 C57.27555176 33.43785645 58.11360352 34.06321289 58.97705078 34.70751953 C62.61260921 37.42535017 66.22450864 40.15597426 69.75 43.015625 C70.29857666 43.45285889 70.84715332 43.89009277 71.41235352 44.34057617 C72.8157135 45.46492654 74.2035747 46.60854993 75.58984375 47.75390625 C77.95877839 49.31045271 77.95877839 49.31045271 80.62109375 48.37890625 C82.71981339 47.16240702 84.36409765 46.02526974 86.125 44.375 C89.98277968 40.92905301 94.11500547 37.95054294 98.3125 34.93359375 C101.91527634 32.34147996 105.45643135 29.67209426 109 27 C112.02722192 24.72855669 115.05546266 22.45850832 118.0859375 20.19140625 C119.8904876 18.83436522 121.68870693 17.46880491 123.4765625 16.08984375 C124.18554688 15.54457031 124.89453125 14.99929688 125.625 14.4375 C126.23601562 13.96183594 126.84703125 13.48617188 127.4765625 12.99609375 C129 12 129 12 131 12 C131 11.34 131 10.68 131 10 C132.828125 8.59765625 132.828125 8.59765625 135.25 7.0625 C138.6976637 4.87155724 138.6976637 4.87155724 141.875 2.3203125 C144.88615066 0.44941374 147.24374528 0.70731236 150.75 0.8125 C151.92046875 0.83957031 153.0909375 0.86664063 154.296875 0.89453125 C155.18890625 0.92933594 156.0809375 0.96414063 157 1 C154.38818636 3.68863169 151.77077847 6.24322221 148.875 8.625 C146.13283149 10.8138384 146.13283149 10.8138384 144.3125 12.6875 C143 14 143 14 140 16 C139.67 16.66 139.34 17.32 139 18 C137.68747118 18.70674629 136.34721283 19.36184656 135 20 C130.18270792 22.54002674 126.73107495 24.94911862 123 29 C121 31 121 31 118.7265625 31.859375 C115.4616951 33.22519345 113.14386088 35.04367814 110.375 37.25 C104.64538533 41.76163504 98.8169206 46.12300818 92.9375 50.4375 C92.11620605 51.04045898 91.29491211 51.64341797 90.44873047 52.26464844 C88.9636138 53.35473821 87.47807772 54.44425704 85.99194336 55.53295898 C83.9448685 56.98138588 83.9448685 56.98138588 82.05688477 58.81274414 C80 60 80 60 77.52807617 59.38989258 C75.00895562 58.00492364 72.81589191 56.53049534 70.55078125 54.76171875 C69.71224609 54.11332031 68.87371094 53.46492188 68.00976562 52.796875 C67.11966797 52.10078125 66.22957031 51.4046875 65.3125 50.6875 C58.61629419 45.51379019 51.88987971 40.41311539 45 35.5 C38.28437333 30.69903174 31.6835334 25.76339628 25.125 20.75 C24.23772217 20.07195312 23.35044434 19.39390625 22.4362793 18.6953125 C19.26823499 16.27183434 16.10156508 13.84659491 12.93896484 11.41601562 C11.23328349 10.1064954 9.52355497 8.8024849 7.8125 7.5 C6.91144531 6.8090625 6.01039063 6.118125 5.08203125 5.40625 C3.14251247 3.81342895 3.14251247 3.81342895 1 4 C0.67 2.68 0.34 1.36 0 0 Z " fill="#0D080B" transform="translate(205,322)"/>
<path d="M0 0 C1.65 0 3.3 0 5 0 C5.33 0.99 5.66 1.98 6 3 C7.58202017 4.47872944 7.58202017 4.47872944 9.5859375 5.86328125 C10.34221436 6.41322754 11.09849121 6.96317383 11.87768555 7.52978516 C12.70179932 8.11808105 13.52591309 8.70637695 14.375 9.3125 C16.11861508 10.57664984 17.86210108 11.84097773 19.60546875 13.10546875 C20.50185059 13.75177246 21.39823242 14.39807617 22.32177734 15.06396484 C26.46327566 18.05777356 30.57555279 21.09079797 34.6875 24.125 C35.47753418 24.70677002 36.26756836 25.28854004 37.08154297 25.88793945 C42.71725281 30.04121005 48.32501873 34.23029957 53.91577148 38.44384766 C57.61735778 41.22898795 61.33781779 43.98577234 65.078125 46.71875 C65.93792969 47.3478125 66.79773438 47.976875 67.68359375 48.625 C69.3558779 49.84676011 71.03025901 51.06565677 72.70703125 52.28125 C76.40178862 54.98198635 79.90148923 57.60163334 83 61 C81.69289063 61.60714844 81.69289063 61.60714844 80.359375 62.2265625 C76.97912494 64.01102009 74.23693035 65.99651842 71.25 68.375 C66.03492416 72.47741432 60.7132358 76.39582795 55.3125 80.25 C49.09629917 84.69823012 43.00842321 89.27511398 37 94 C29.50423674 99.89404825 21.84662884 105.52327049 14.0859375 111.0625 C6.73266907 116.15680676 6.73266907 116.15680676 0 122 C-0.92295488 117.73682745 -1.1064897 114.2440701 0 110 C3.49459532 106.38836082 7.54697356 103.98786401 11.81835938 101.38085938 C15.71294961 98.91579644 19.37075318 96.13065959 23.0625 93.375 C23.85454834 92.79097412 24.64659668 92.20694824 25.46264648 91.60522461 C31.65383684 87.03555115 37.76829293 82.36916226 43.875 77.6875 C51.43614016 71.89118042 59.07658906 66.2920741 67 61 C65.90081711 57.70245132 65.42847662 57.31775204 62.703125 55.42578125 C61.6522168 54.68424805 61.6522168 54.68424805 60.58007812 53.92773438 C59.81115234 53.39470703 59.04222656 52.86167969 58.25 52.3125 C51.22172212 47.34569927 44.32193016 42.24656962 37.5 37 C30.82173755 31.87450734 24.08881447 26.84675595 17.25 21.9375 C16.5089502 21.4002832 15.76790039 20.86306641 15.00439453 20.30957031 C11.99615981 18.13088536 8.99021802 15.993589 5.8828125 13.95703125 C0.24399717 10.11877222 0.24399717 10.11877222 -0.52734375 6.58203125 C-0.55914154 4.30318974 -0.41105251 2.23795253 0 0 Z " fill="#06060C" transform="translate(448,139)"/>
<path d="M0 0 C6.60236167 -0.06890752 13.20347332 -0.12863173 19.8059082 -0.16479492 C22.05139394 -0.17987182 24.29685029 -0.20033653 26.54223633 -0.22631836 C29.77172099 -0.26274918 33.00081594 -0.27973755 36.23046875 -0.29296875 C37.23272995 -0.30845261 38.23499115 -0.32393646 39.2676239 -0.33988953 C48.33222236 -0.34207322 48.33222236 -0.34207322 52 3 C52.46914905 5.74081816 52.6139678 7.78031383 52.5 10.5 C52.50386719 11.51513672 52.50386719 11.51513672 52.5078125 12.55078125 C52.44997197 15.48329607 52.36313177 17.50775472 50.59375 19.90625 C47.81106656 21.81593472 45.70218383 22.22978162 42.375 22.5625 C41.55773437 22.64628906 40.74046875 22.73007813 39.8984375 22.81640625 C39.27195313 22.87699219 38.64546875 22.93757813 38 23 C38.86334961 23.49197876 38.86334961 23.49197876 39.74414062 23.99389648 C42.33165227 25.47123993 44.91585266 26.9542803 47.5 28.4375 C48.85931641 29.2119043 48.85931641 29.2119043 50.24609375 30.00195312 C51.10332031 30.49501953 51.96054688 30.98808594 52.84375 31.49609375 C53.63974609 31.95169678 54.43574219 32.4072998 55.25585938 32.87670898 C55.83142578 33.24739502 56.40699219 33.61808105 57 34 C57 34.33 57 34.66 57 35 C45.26197587 36.72712072 38.87783351 34.40529591 29.40332031 27.36523438 C23.5082553 23.05958847 19.45226751 21.57415614 12 22 C12 26.29 12 30.58 12 35 C8.04 35 4.08 35 0 35 C0 23.45 0 11.9 0 0 Z " fill="#D6CB71" transform="translate(143,91)"/>
<path d="M0 0 C2.91911155 2.08369194 5.76637529 4.21044451 8.53515625 6.48828125 C14.03891795 10.91842757 19.66202599 15.13056586 25.41015625 19.23828125 C31.66027598 23.71217498 37.79250799 28.28904174 43.86328125 33.00390625 C48.20575252 36.35499288 52.62026088 39.60855743 57.03515625 42.86328125 C57.85145508 43.46551514 58.66775391 44.06774902 59.50878906 44.68823242 C64.54240263 48.38770299 69.616125 51.9963364 74.828125 55.44140625 C75.32957031 55.84875 75.83101562 56.25609375 76.34765625 56.67578125 C76.34765625 57.33578125 76.34765625 57.99578125 76.34765625 58.67578125 C67.59651177 59.60988246 62.22701357 58.94970124 55.29760742 53.39355469 C54.44787354 52.66168945 53.59813965 51.92982422 52.72265625 51.17578125 C50.89367538 49.69085648 49.0642537 48.20647448 47.234375 46.72265625 C46.38149902 46.01302734 45.52862305 45.30339844 44.64990234 44.57226562 C42.01445538 42.40130571 39.32116872 40.39832865 36.53515625 38.42578125 C32.20378889 35.31047602 27.92646605 32.12920242 23.66015625 28.92578125 C22.98911865 28.42369141 22.31808105 27.92160156 21.62670898 27.40429688 C18.03116576 24.70988054 14.45663059 21.99198728 10.90625 19.23828125 C10.1846167 18.68366211 9.4629834 18.12904297 8.71948242 17.55761719 C7.33206479 16.49059389 5.95042813 15.41600022 4.57543945 14.33300781 C1.1464345 11.70826119 -0.20549641 10.67578125 -4.65234375 10.67578125 C-4.65234375 11.33578125 -4.65234375 11.99578125 -4.65234375 12.67578125 C-6.1640625 13.83203125 -6.1640625 13.83203125 -8.33984375 15.17578125 C-12.32779976 17.74302793 -16.10600318 20.50600148 -19.83984375 23.42578125 C-25.05527653 27.49131838 -30.37335763 31.37988689 -35.76782227 35.20385742 C-41.17695534 39.03890013 -46.47154485 43.00143691 -51.73046875 47.0390625 C-52.82938598 47.87635603 -53.92834434 48.71359559 -55.02734375 49.55078125 C-56.55488281 50.72253906 -56.55488281 50.72253906 -58.11328125 51.91796875 C-60.65234375 53.67578125 -60.65234375 53.67578125 -62.65234375 53.67578125 C-62.65234375 54.33578125 -62.65234375 54.99578125 -62.65234375 55.67578125 C-65.11910475 58.24843856 -66.51416805 58.6640582 -70.10546875 58.96875 C-71.3584375 58.93394531 -72.61140625 58.89914063 -73.90234375 58.86328125 C-75.165625 58.83621094 -76.42890625 58.80914062 -77.73046875 58.78125 C-78.6946875 58.74644531 -79.65890625 58.71164063 -80.65234375 58.67578125 C-76.89566913 54.72627352 -72.9137607 51.46360387 -68.52734375 48.23828125 C-67.83358643 47.72313965 -67.1398291 47.20799805 -66.42504883 46.67724609 C-64.17081362 45.0055323 -61.91195038 43.34022577 -59.65234375 41.67578125 C-58.11711864 40.54175989 -56.58196288 39.40764462 -55.046875 38.2734375 C-51.05983597 35.33038521 -47.06836352 32.39340108 -43.07568359 29.45800781 C-39.88782693 27.11352326 -36.70194058 24.76637763 -33.51733398 22.41748047 C-31.94966709 21.26297075 -30.3801855 20.11092082 -28.80883789 18.96142578 C-24.6308288 15.9002415 -20.49860191 12.79335137 -16.41015625 9.61328125 C-15.55099609 8.95457031 -14.69183594 8.29585937 -13.80664062 7.6171875 C-12.1532655 6.34811037 -10.51073551 5.06474388 -8.88085938 3.765625 C-3.39139224 -0.41455899 -3.39139224 -0.41455899 0 0 Z " fill="#0B0708" transform="translate(285.65234375,16.32421875)"/>
<path d="M0 0 C2.31 0 4.62 0 7 0 C7.00586624 0.66541306 7.01173248 1.33082611 7.01777649 2.0164032 C7.08172096 8.94342577 7.16614391 15.86998421 7.26245117 22.79663086 C7.29570111 25.38152954 7.32373277 27.96650084 7.34643555 30.55151367 C7.37997927 34.26773009 7.43229728 37.98328101 7.48828125 41.69921875 C7.49467117 42.85459641 7.5010611 44.00997406 7.50764465 45.20036316 C7.53733589 46.82147758 7.53733589 46.82147758 7.56762695 48.4753418 C7.57873001 49.42354294 7.58983307 50.37174408 7.60127258 51.34867859 C8.08035844 54.53434009 9.05967038 56.44106004 11 59 C14 59.75 14 59.75 17 59 C19.98235013 55.96242674 20.38444547 53.67635499 20.43237305 49.49707031 C20.45216721 48.39623108 20.47196136 47.29539185 20.49235535 46.16119385 C20.49874527 44.97878113 20.50513519 43.79636841 20.51171875 42.578125 C20.52966995 41.36300232 20.54762115 40.14787964 20.56611633 38.89593506 C20.62030858 35.01399203 20.6541447 31.13217259 20.6875 27.25 C20.72066508 24.61847235 20.75515397 21.98696103 20.79101562 19.35546875 C20.8760404 12.90375665 20.94435271 6.45202873 21 0 C23.64 0 26.28 0 29 0 C29.09273104 11.23969587 29.16378093 22.47930054 29.20724869 33.71930122 C29.22811239 38.9386561 29.25640807 44.15774901 29.30175781 49.37695312 C29.34525859 54.41496222 29.36914626 59.45271952 29.37950897 64.49090195 C29.38689271 66.41183307 29.40131152 68.3327506 29.42292023 70.25357437 C29.45201048 72.94685765 29.45595366 75.63910411 29.45410156 78.33251953 C29.47567322 79.52043343 29.47567322 79.52043343 29.49768066 80.73234558 C29.45897058 85.94385043 28.39389094 88.83356425 25 93 C19.77540635 97.53363811 13.56446785 97.41427095 6.953125 97.3359375 C4.12841169 97.01460768 2.40671214 96.46038358 0 95 C0.33 93.02 0.66 91.04 1 89 C2.03640625 89.05800781 3.0728125 89.11601562 4.140625 89.17578125 C5.51037156 89.22269038 6.88016692 89.26818932 8.25 89.3125 C8.93191406 89.35439453 9.61382812 89.39628906 10.31640625 89.43945312 C13.83502827 89.52485657 15.65695873 89.27267383 18.4375 87.0625 C20.56073779 82.90095394 20.66989062 79.30107176 20.75 74.6875 C20.77964844 73.85154297 20.80929687 73.01558594 20.83984375 72.15429688 C20.91016107 70.10337515 20.95738973 68.05168438 21 66 C20.01 66.495 20.01 66.495 19 67 C14.50148004 67.41402308 10.36059321 67.53240604 6.125 65.875 C2.42965568 62.61440207 0.27189268 60.16464016 -0.34924316 55.21954346 C-0.46318696 51.71520796 -0.44910084 48.23228916 -0.390625 44.7265625 C-0.38496521 43.44768158 -0.37930542 42.16880066 -0.37347412 40.85116577 C-0.35491848 37.46744858 -0.31904526 34.08482908 -0.2746582 30.70141602 C-0.23358167 27.24244625 -0.21543687 23.78336264 -0.1953125 20.32421875 C-0.15126253 13.54917796 -0.08436154 6.7746523 0 0 Z " fill="#F9F5F3" transform="translate(397,150)"/>
<path d="M0 0 C4.27984169 1.86756728 5.64150044 3.34275081 7.875 7.4375 C9.7168265 13.11377232 9.24244775 19.1094176 9 25 C6.69 25 4.38 25 2 25 C1.89042969 23.95199219 1.78085938 22.90398437 1.66796875 21.82421875 C1.50849426 20.44523349 1.34830034 19.06633129 1.1875 17.6875 C1.11724609 16.99720703 1.04699219 16.30691406 0.97460938 15.59570312 C0.62226141 12.67826202 0.32260612 10.45164857 -1.40625 8.03125 C-3.63799271 6.58718118 -5.40373735 6.78949222 -8 7 C-11.20310247 17.61027694 -10.82126347 25.99094426 -6 36 C-4.14701682 39.15039706 -2.10539702 42.13887996 0 45.125 C7.44600026 55.79637166 11.14801238 63.73792214 11.3125 76.875 C11.34150391 77.63941406 11.37050781 78.40382813 11.40039062 79.19140625 C11.47676034 86.11167753 9.42180768 91.22204413 4.875 96.4375 C0.17758683 98.99044194 -4.8766763 99.88406928 -10.09765625 98.40625 C-13.57223635 96.69477955 -15.0326815 94.94008391 -16.875 91.5625 C-18.54597087 86.27109224 -19.11865953 81.74729302 -19.0625 76.1875 C-19.05347656 75.02605469 -19.04445312 73.86460937 -19.03515625 72.66796875 C-19.02355469 71.78753906 -19.01195312 70.90710938 -19 70 C-16.69 70 -14.38 70 -12 70 C-11.96261719 70.85722656 -11.92523438 71.71445313 -11.88671875 72.59765625 C-11.51561297 79.05198612 -11.06490552 84.26995925 -8 90 C-3.34947128 90.26932521 -3.34947128 90.26932521 1 89 C3.75615599 80.73153204 3.42273405 68.90365255 1.01171875 60.59375 C-0.46191595 57.83743045 -2.0877448 55.47313321 -4 53 C-4.83193458 51.86606641 -5.65979287 50.72913512 -6.484375 49.58984375 C-6.91782227 48.99139648 -7.35126953 48.39294922 -7.79785156 47.77636719 C-8.45479004 46.86612793 -8.45479004 46.86612793 -9.125 45.9375 C-9.56038086 45.33454102 -9.99576172 44.73158203 -10.44433594 44.11035156 C-16.13928513 36.1286948 -18.31476447 29.68650793 -18.5 19.875 C-18.51885254 19.12250977 -18.53770508 18.37001953 -18.55712891 17.59472656 C-18.48148021 11.08322929 -16.68493657 5.72267664 -12.0546875 1.02734375 C-8.15924365 -0.92037817 -4.23120908 -0.58154058 0 0 Z " fill="#F7F2F1" transform="translate(218,149)"/>
<path d="M0 0 C1.36995117 -0.00218285 1.36995117 -0.00218285 2.76757812 -0.00440979 C4.69404295 -0.00275351 6.62052137 0.00877734 8.546875 0.02954102 C11.49015699 0.05849691 14.43163676 0.05014399 17.375 0.03710938 C19.25000873 0.04334726 21.12501178 0.05173858 23 0.0625 C24.31581055 0.05809654 24.31581055 0.05809654 25.65820312 0.05360413 C30.37772556 0.12622236 33.71516969 0.34151188 37.5 3.49609375 C38.17278497 6.61243373 37.73328236 9.27679724 37.5 12.49609375 C33.87 12.82609375 30.24 13.15609375 26.5 13.49609375 C26.5 11.51609375 26.5 9.53609375 26.5 7.49609375 C16.6 7.49609375 6.7 7.49609375 -3.5 7.49609375 C-3.5 14.42609375 -3.5 21.35609375 -3.5 28.49609375 C6.4 28.49609375 16.3 28.49609375 26.5 28.49609375 C26.5 26.18609375 26.5 23.87609375 26.5 21.49609375 C30.13 21.82609375 33.76 22.15609375 37.5 22.49609375 C37.86928354 30.98961509 37.86928354 30.98961509 36.23828125 33.2265625 C33.24573387 35.41213081 30.08013146 35.62109902 26.45336914 35.6730957 C25.66897964 35.68593094 24.88459015 35.69876617 24.07643127 35.71199036 C22.81850014 35.72307076 22.81850014 35.72307076 21.53515625 35.734375 C20.66483261 35.74244675 19.79450897 35.75051849 18.89781189 35.75883484 C17.05958023 35.77264328 15.22132328 35.78337987 13.38305664 35.79125977 C11.50439945 35.80280522 9.62577571 35.82329734 7.74731445 35.8527832 C5.03053534 35.8954227 2.31472824 35.91162107 -0.40234375 35.921875 C-1.23894028 35.93938309 -2.0755368 35.95689117 -2.93748474 35.97492981 C-6.82169985 35.96050069 -9.05534392 35.7372674 -12.52709961 33.85424805 C-15.04048581 30.85006573 -15.1438451 29.22851696 -15.1640625 25.33984375 C-15.17050781 24.15261719 -15.17695313 22.96539062 -15.18359375 21.7421875 C-15.16425781 20.50597656 -15.14492188 19.26976562 -15.125 17.99609375 C-15.14433594 16.75988281 -15.16367187 15.52367188 -15.18359375 14.25 C-15.17714844 13.06277344 -15.17070312 11.87554687 -15.1640625 10.65234375 C-15.15842285 9.56759766 -15.1527832 8.48285156 -15.14697266 7.36523438 C-14.5 4.49609375 -14.5 4.49609375 -12.55224609 2.14233398 C-8.30370467 -0.14913257 -4.7566283 -0.0609159 0 0 Z " fill="#FAEB7B" transform="translate(295.5,90.50390625)"/>
<path d="M0 0 C1.17046875 0.01804688 2.3409375 0.03609375 3.546875 0.0546875 C4.88492187 0.08949219 4.88492187 0.08949219 6.25 0.125 C6.25 2.105 6.25 4.085 6.25 6.125 C5.57453125 6.15078125 4.8990625 6.1765625 4.203125 6.203125 C2.86507813 6.28820312 2.86507813 6.28820312 1.5 6.375 C0.61828125 6.42140625 -0.2634375 6.4678125 -1.171875 6.515625 C-4.56754293 7.31823742 -5.62207204 8.36157222 -7.75 11.125 C-8.16801769 13.7923866 -8.35469958 16.06608981 -8.359375 18.734375 C-8.37591125 19.46118469 -8.39244751 20.18799438 -8.40948486 20.93682861 C-8.45792361 23.24963869 -8.47932489 25.56179157 -8.5 27.875 C-8.52816341 29.44664757 -8.55809137 31.01826459 -8.58984375 32.58984375 C-8.66368047 36.43484169 -8.71327948 40.27947572 -8.75 44.125 C-4.13 44.125 0.49 44.125 5.25 44.125 C5.25 46.435 5.25 48.745 5.25 51.125 C0.63 51.125 -3.99 51.125 -8.75 51.125 C-8.70583049 56.03695369 -8.63598243 60.94762391 -8.54248047 65.85888672 C-8.51428282 67.52903011 -8.49306221 69.19930665 -8.47900391 70.86962891 C-8.45755663 73.27315372 -8.41090155 75.67507983 -8.359375 78.078125 C-8.35814636 78.82306213 -8.35691772 79.56799927 -8.35565186 80.33551025 C-8.25776631 83.8124969 -8.01029228 85.78067206 -5.88671875 88.58984375 C-3.17785039 90.5360691 -1.31013935 90.71737432 2 90.875 C3.47726562 90.96007812 3.47726562 90.96007812 4.984375 91.046875 C5.73203125 91.07265625 6.4796875 91.0984375 7.25 91.125 C7.25 93.105 7.25 95.085 7.25 97.125 C-5.36249288 97.74698595 -5.36249288 97.74698595 -10.375 95.5 C-14.07875263 91.79624737 -16.92832666 88.5104091 -17.20410156 83.13916016 C-17.20347581 81.64731101 -17.18132355 80.15535653 -17.140625 78.6640625 C-17.13213531 77.4782106 -17.13213531 77.4782106 -17.12347412 76.2684021 C-17.10121487 73.76163273 -17.05104153 71.25633187 -17 68.75 C-16.97992133 67.0429895 -16.96167296 65.33595643 -16.9453125 63.62890625 C-16.90138484 59.46037804 -16.83243296 55.29293736 -16.75 51.125 C-18.07 51.125 -19.39 51.125 -20.75 51.125 C-20.75 49.145 -20.75 47.165 -20.75 45.125 C-19.43 45.125 -18.11 45.125 -16.75 45.125 C-16.7814209 44.10664063 -16.8128418 43.08828125 -16.84521484 42.0390625 C-16.95451504 38.22998183 -17.02294667 34.42103713 -17.07958984 30.61083984 C-17.10960598 28.96769843 -17.1504338 27.32471514 -17.20263672 25.68212891 C-17.71216398 9.22739553 -17.71216398 9.22739553 -12.43994141 3.4375 C-8.29862665 0.22113073 -5.22033413 -0.10440668 0 0 Z " fill="#F7EEED" transform="translate(365.75,149.875)"/>
<path d="M0 0 C3.96 0 7.92 0 12 0 C12 4.62 12 9.24 12 14 C13.86256962 13.01846216 15.72491466 12.036496 17.58618164 11.05249023 C19.16266051 10.22111902 20.74130813 9.39384822 22.32202148 8.57055664 C26.22319372 6.52766258 29.9157145 4.41159369 33.5625 1.9375 C39.58294294 -1.5505344 47.29817693 -0.37003931 54 0 C52.36391944 3.27216113 48.86850585 4.21604184 45.6875 5.75 C44.23304372 6.46348215 42.77861695 7.17702446 41.32421875 7.890625 C40.23439697 8.42139648 40.23439697 8.42139648 39.12255859 8.96289062 C36.07087738 10.45398124 33.03572867 11.97669529 30 13.5 C28.33333333 14.33333333 26.66666667 15.16666667 25 16 C28.92580245 19.40387495 32.92414744 21.64237671 37.5625 23.875 C38.98049869 24.57025144 40.39846711 25.26556461 41.81640625 25.9609375 C42.51781738 26.3022168 43.21922852 26.64349609 43.94189453 26.99511719 C46.97241693 28.47478862 49.98573348 29.98749052 53 31.5 C54.4540625 32.22703125 54.4540625 32.22703125 55.9375 32.96875 C56.618125 33.3090625 57.29875 33.649375 58 34 C58 34.33 58 34.66 58 35 C40.26631544 37.64986091 26.48430079 29.65620053 12 20 C12 24.95 12 29.9 12 35 C8.04 35 4.08 35 0 35 C0 23.45 0 11.9 0 0 Z " fill="#F4E77C" transform="translate(370,91)"/>
<path d="M0 0 C9.24 0 18.48 0 28 0 C28 2.31 28 4.62 28 7 C24.7 7 21.4 7 18 7 C18 36.7 18 66.4 18 97 C15.36 97 12.72 97 10 97 C10 67.3 10 37.6 10 7 C6.7 7 3.4 7 0 7 C0 4.69 0 2.38 0 0 Z " fill="#FAF6F4" transform="translate(248,150)"/>
<path d="M0 0 C2.64 0 5.28 0 8 0 C8 29.7 8 59.4 8 90 C13.61 90 19.22 90 25 90 C25 92.31 25 94.62 25 97 C16.75 97 8.5 97 0 97 C0 64.99 0 32.98 0 0 Z " fill="#F7F0F1" transform="translate(301,150)"/>
<path d="M0 0 C12.87 0 25.74 0 39 0 C40.09089489 4.36357958 40.21644993 7.5267014 40 12 C37.28336207 14.71663793 35.69805347 14.30753121 31.8984375 14.4140625 C30.68671875 14.45273438 29.475 14.49140625 28.2265625 14.53125 C26.95554688 14.5621875 25.68453125 14.593125 24.375 14.625 C23.09625 14.66367188 21.8175 14.70234375 20.5 14.7421875 C17.33347983 14.83671049 14.1669696 14.92226357 11 15 C12.32 15.33 13.64 15.66 15 16 C15 16.66 15 17.32 15 18 C13.02 18.66 11.04 19.32 9 20 C8.67 23.63 8.34 27.26 8 31 C5.36 31 2.72 31 0 31 C0 20.77 0 10.54 0 0 Z " fill="#FBEB72" transform="translate(145,93)"/>
<path d="M0 0 C3.84907731 1.1897148 4.56919835 1.60934384 6.4375 5.0625 C6.69380289 7.68395494 6.7881943 10.05776167 6.73046875 12.671875 C6.72622391 13.39868469 6.72197906 14.12549438 6.71760559 14.87432861 C6.7008613 17.18743504 6.66321885 19.49965855 6.625 21.8125 C6.60994758 23.38410197 6.59626015 24.95571764 6.58398438 26.52734375 C6.55097195 30.37273415 6.49922056 34.21746756 6.4375 38.0625 C1.8175 38.0625 -2.8025 38.0625 -7.5625 38.0625 C-7.66165614 33.45440905 -7.73410182 28.84694408 -7.78222656 24.23803711 C-7.80229558 22.67152077 -7.82955751 21.10507891 -7.86425781 19.53881836 C-7.91298754 17.28220206 -7.9355147 15.02657917 -7.953125 12.76953125 C-7.97377014 12.07350296 -7.99441528 11.37747467 -8.01568604 10.66035461 C-8.01730696 7.117751 -7.60964976 5.14042489 -5.76074219 2.0847168 C-3.5625 0.0625 -3.5625 0.0625 0 0 Z " fill="#801E18" transform="translate(162.5625,155.9375)"/>
<path d="M0 0 C1.32 0 2.64 0 4 0 C4 31.02 4 62.04 4 94 C10.93 94 17.86 94 25 94 C25 94.66 25 95.32 25 96 C17.54047961 99.72976019 8.33999734 97 0 97 C0 64.99 0 32.98 0 0 Z " fill="#160200" transform="translate(297,153)"/>
<path d="M0 0 C1.32 0 2.64 0 4 0 C4 1.32 4 2.64 4 4 C7.63 4 11.26 4 15 4 C15 33.7 15 63.4 15 94 C16.32 94 17.64 94 19 94 C19 94.99 19 95.98 19 97 C16.36 97 13.72 97 11 97 C11 67.3 11 37.6 11 7 C7.37 7 3.74 7 0 7 C0 4.69 0 2.38 0 0 Z " fill="#100303" transform="translate(243,153)"/>
<path d="M0 0 C3.96 0 7.92 0 12 0 C12.06058594 1.05960937 12.12117188 2.11921875 12.18359375 3.2109375 C12.26800127 4.59897221 12.35264917 5.98699232 12.4375 7.375 C12.47681641 8.07367188 12.51613281 8.77234375 12.55664062 9.4921875 C12.74280134 13.37360492 12.74280134 13.37360492 14 17 C13.34 17 12.68 17 12 17 C12 17.66 12 18.32 12 19 C11.34 19 10.68 19 10 19 C10 23.29 10 27.58 10 32 C9.34 32 8.68 32 8 32 C8 31.01 8 30.02 8 29 C7.34 29 6.68 29 6 29 C5.67 30.32 5.34 31.64 5 33 C6.98 33 8.96 33 11 33 C11 28.71 11 24.42 11 20 C11.33 20 11.66 20 12 20 C12 24.95 12 29.9 12 35 C8.04 35 4.08 35 0 35 C0 23.45 0 11.9 0 0 Z " fill="#E8DB71" transform="translate(370,91)"/>
<path d="M0 0 C3.63 0 7.26 0 11 0 C11 11.55 11 23.1 11 35 C7.37 35 3.74 35 0 35 C0 23.45 0 11.9 0 0 Z " fill="#FBEA71" transform="translate(232,91)"/>
<path d="M0 0 C0.33 0.66 0.66 1.32 1 2 C0.69964844 2.68964844 0.39929688 3.37929687 0.08984375 4.08984375 C-2.90547133 12.08808653 -2.15413037 23.297983 0.8125 31.1875 C3.51340522 36.76781854 7.18109729 41.70449354 10.98950195 46.57495117 C17.36060251 54.75741013 19.64106615 60.77539571 19.375 71.25 C19.37371094 72.2296875 19.37242187 73.209375 19.37109375 74.21875 C19.26644447 82.7302247 19.26644447 82.7302247 17 86 C13.375 86.75 13.375 86.75 10 87 C11.98 86.505 11.98 86.505 14 86 C15.51449348 67.35091621 15.51449348 67.35091621 8 51 C7.14148438 49.948125 7.14148438 49.948125 6.265625 48.875 C4.87027965 47.22716358 3.43877409 45.61005672 2 44 C2 43.34 2 42.68 2 42 C1.01 41.67 0.02 41.34 -1 41 C-6.37757928 30.92650642 -7.83654974 19.46785012 -5.41796875 8.31640625 C-4.22180924 4.83027291 -2.65982988 2.48101779 0 0 Z " fill="#0F0505" transform="translate(202,153)"/>
<path d="M0 0 C6.78117426 -0.0458704 13.56181188 -0.08570853 20.34301758 -0.10986328 C22.6506533 -0.11993107 24.95827625 -0.13358623 27.26586914 -0.15087891 C30.57962191 -0.17509287 33.89320626 -0.18647526 37.20703125 -0.1953125 C38.2414888 -0.20563507 39.27594635 -0.21595764 40.3417511 -0.22659302 C41.3025206 -0.22674408 42.2632901 -0.22689514 43.25317383 -0.22705078 C44.09922684 -0.231492 44.94527985 -0.23593323 45.81697083 -0.24050903 C48 0 48 0 51 2 C51.30471206 4.57810299 51.41857771 6.86399418 51.375 9.4375 C51.38660156 10.11876953 51.39820313 10.80003906 51.41015625 11.50195312 C51.39220778 14.55618481 51.37841067 16.5100067 49.4765625 18.97265625 C48.98929688 19.31167969 48.50203125 19.65070313 48 20 C47.01 19.67 46.02 19.34 45 19 C45 18.34 45 17.68 45 17 C44.01080566 17.01047363 43.02161133 17.02094727 42.00244141 17.03173828 C38.33857836 17.06789019 34.67473114 17.09088282 31.01074219 17.10986328 C29.42380117 17.11993188 27.83687875 17.13358767 26.25 17.15087891 C23.97130753 17.17509001 21.69285994 17.18647422 19.4140625 17.1953125 C18.70255035 17.20563507 17.99103821 17.21595764 17.25796509 17.22659302 C15.50368335 17.22699422 13.75003291 17.12202209 12 17 C11.34 16.34 10.68 15.68 10 15 C10.87325928 14.97494385 11.74651855 14.9498877 12.64624023 14.92407227 C15.87602552 14.82912291 19.10564154 14.72987971 22.33520508 14.62768555 C23.73489199 14.58428566 25.13463359 14.54261436 26.53442383 14.50268555 C28.54261495 14.44510555 30.55061149 14.38086 32.55859375 14.31640625 C33.76829834 14.27974854 34.97800293 14.24309082 36.22436523 14.20532227 C38.90705456 14.31061734 38.90705456 14.31061734 40 13 C40 9.04 40 5.08 40 1 C27.13 1 14.26 1 1 1 C1 11.23 1 21.46 1 32 C3.64 32 6.28 32 9 32 C9 28.37 9 24.74 9 21 C9.33 21 9.66 21 10 21 C10 24.96 10 28.92 10 33 C6.7 33 3.4 33 0 33 C0 22.11 0 11.22 0 0 Z " fill="#FAED84" transform="translate(144,92)"/>
<path d="M0 0 C1.32 0 2.64 0 4 0 C4 1.32 4 2.64 4 4 C5.32 4 6.64 4 8 4 C8.01401855 5.58868896 8.01401855 5.58868896 8.02832031 7.20947266 C8.06833849 11.15715851 8.1341291 15.10407471 8.20751953 19.05126953 C8.23566087 20.75624671 8.25690935 22.46135269 8.27099609 24.16650391 C8.29252137 26.62469089 8.339217 29.08134048 8.390625 31.5390625 C8.39185364 32.29555084 8.39308228 33.05203918 8.39434814 33.83145142 C8.53488244 38.96497272 9.62695246 41.92480476 13 46 C18.05037785 49.59353808 21.85693738 50.56890789 28 51 C28 51.66 28 52.32 28 53 C25.77144426 53.0814222 23.54202345 53.13938079 21.3125 53.1875 C19.45044922 53.23970703 19.45044922 53.23970703 17.55078125 53.29296875 C13.80008965 52.98350575 11.93281045 52.31596695 9 50 C9 49.34 9 48.68 9 48 C8.34 48 7.68 48 7 48 C1.73106352 40.2003145 2.54677124 32.02067288 2.75 23 C2.77009357 21.44663758 2.7883393 19.8932501 2.8046875 18.33984375 C2.84846321 14.55927021 2.91733026 10.77991489 3 7 C2.01 7 1.02 7 0 7 C0 4.69 0 2.38 0 0 Z " fill="#241212" transform="translate(341,197)"/>
<path d="M0 0 C4.09338652 -0.04939115 8.18665798 -0.08571501 12.28027344 -0.10986328 C13.67320781 -0.11992877 15.06612102 -0.13358234 16.45898438 -0.15087891 C18.4595436 -0.1751022 20.46025615 -0.18540814 22.4609375 -0.1953125 C24.26763916 -0.21102295 24.26763916 -0.21102295 26.11083984 -0.22705078 C29 0 29 0 31 2 C31.25 5 31.25 5 31 8 C29 10 29 10 26.11083984 10.22705078 C24.90637207 10.21657715 23.7019043 10.20610352 22.4609375 10.1953125 C20.50800781 10.18564453 20.50800781 10.18564453 18.515625 10.17578125 C17.13541405 10.15906929 15.75520571 10.14213939 14.375 10.125 C12.98698548 10.11497006 11.59896411 10.10584423 10.2109375 10.09765625 C6.80711974 10.07401863 3.40364494 10.04106867 0 10 C0 6.7 0 3.4 0 0 Z " fill="#171508" transform="translate(154,97)"/>
<path d="M0 0 C0.00364563 0.64622314 0.00729126 1.29244629 0.01104736 1.95825195 C0.05298129 8.70739209 0.12240357 15.4558591 0.20751953 22.20458984 C0.23567877 24.72047175 0.25691828 27.2364413 0.27099609 29.75244141 C0.29249456 33.37708236 0.3391837 37.00067517 0.390625 40.625 C0.39185364 41.74302002 0.39308228 42.86104004 0.39434814 44.01293945 C0.5201392 50.77815951 1.37718937 55.23850274 5 61 C8.83002605 64.19168837 13.22025474 64.94683579 18 66 C16 68 16 68 12.25 68.25 C7.3313763 68.1074312 3.53335508 67.28470291 -0.3125 64.0625 C-3.12728869 60.62220271 -3.14017354 57.62571412 -3.20532227 53.33520508 C-3.22526749 52.17422806 -3.24521271 51.01325104 -3.26576233 49.8170929 C-3.28247482 48.56389755 -3.29918732 47.31070221 -3.31640625 46.01953125 C-3.33718735 44.73640549 -3.35796844 43.45327972 -3.37937927 42.13127136 C-3.43451906 38.72337185 -3.48396389 35.31541259 -3.53222656 31.90740967 C-3.58250079 28.42845352 -3.63815591 24.94958393 -3.69335938 21.47070312 C-3.80084189 14.64721049 -3.90230877 7.82363964 -4 1 C-1 0 -1 0 0 0 Z " fill="#0A0001" transform="translate(396,152)"/>
<path d="M0 0 C5.445 0.495 5.445 0.495 11 1 C11.36928354 9.49352134 11.36928354 9.49352134 9.73828125 11.73046875 C6.70595346 13.94509017 3.54593725 14.12514537 -0.12597656 14.11352539 C-0.92650452 14.11344986 -1.72703247 14.11337433 -2.55181885 14.11329651 C-3.83327789 14.10555458 -3.83327789 14.10555458 -5.140625 14.09765625 C-6.02280701 14.0962413 -6.90498901 14.09482635 -7.81390381 14.09336853 C-10.62597065 14.08778001 -13.4379573 14.07522961 -16.25 14.0625 C-18.15885302 14.05748352 -20.06770728 14.05292087 -21.9765625 14.04882812 C-26.65107247 14.03781434 -31.32552265 14.02055758 -36 14 C-36.33 13.34 -36.66 12.68 -37 12 C-26.11 11.67 -15.22 11.34 -4 11 C-4 10.34 -4 9.68 -4 9 C-16.87 8.505 -16.87 8.505 -30 8 C-30 7.67 -30 7.34 -30 7 C-20.1 7 -10.2 7 0 7 C0 4.69 0 2.38 0 0 Z " fill="#E2D87A" transform="translate(322,112)"/>
<path d="M0 0 C3.3 0 6.6 0 10 0 C10 7.92 10 15.84 10 24 C6.7 24 3.4 24 0 24 C0 16.08 0 8.16 0 0 Z " fill="#0D0402" transform="translate(142,266)"/>
<path d="M0 0 C3.3 0 6.6 0 10 0 C10 7.92 10 15.84 10 24 C6.7 24 3.4 24 0 24 C0 16.08 0 8.16 0 0 Z " fill="#040101" transform="translate(412,266)"/>
<path d="M0 0 C3.3 0 6.6 0 10 0 C10 7.92 10 15.84 10 24 C6.7 24 3.4 24 0 24 C0 16.08 0 8.16 0 0 Z " fill="#120102" transform="translate(345,266)"/>
<path d="M0 0 C3.3 0 6.6 0 10 0 C10 7.92 10 15.84 10 24 C6.7 24 3.4 24 0 24 C0 16.08 0 8.16 0 0 Z " fill="#0E0303" transform="translate(300,266)"/>
<path d="M0 0 C3.3 0 6.6 0 10 0 C10 7.92 10 15.84 10 24 C6.7 24 3.4 24 0 24 C0 16.08 0 8.16 0 0 Z " fill="#020101" transform="translate(232,266)"/>
<path d="M0 0 C3.3 0 6.6 0 10 0 C10 7.92 10 15.84 10 24 C7.03 24 4.06 24 1 24 C0 23 0 23 -0.11352539 20.77514648 C-0.10828857 19.81680908 -0.10305176 18.85847168 -0.09765625 17.87109375 C-0.09443359 16.83662109 -0.09121094 15.80214844 -0.08789062 14.73632812 C-0.07951172 13.64771484 -0.07113281 12.55910156 -0.0625 11.4375 C-0.05798828 10.34501953 -0.05347656 9.25253906 -0.04882812 8.12695312 C-0.0369984 5.41794568 -0.01906231 2.7089662 0 0 Z " fill="#030103" transform="translate(187,266)"/>
<path d="M0 0 C1.32 0 2.64 0 4 0 C4 1.65 4 3.3 4 5 C5.32 5 6.64 5 8 5 C8 19.85 8 34.7 8 50 C9.65 50.33 11.3 50.66 13 51 C13 51.66 13 52.32 13 53 C6.84765625 53.09765625 6.84765625 53.09765625 5 53 C4 52 4 52 3.87974548 50.20933533 C3.88196609 49.42990067 3.88418671 48.650466 3.88647461 47.84741211 C3.88655014 46.96657455 3.88662567 46.085737 3.88670349 45.1782074 C3.89444542 43.74227989 3.89444542 43.74227989 3.90234375 42.27734375 C3.9037587 41.30213272 3.90517365 40.32692169 3.90663147 39.32215881 C3.91224867 36.19390857 3.92480407 33.06572877 3.9375 29.9375 C3.94251278 27.82226666 3.94707607 25.70703219 3.95117188 23.59179688 C3.96222369 18.39450704 3.97897854 13.19725855 4 8 C2.68 8 1.36 8 0 8 C0 5.36 0 2.72 0 0 Z " fill="#020201" transform="translate(139,197)"/>
<path d="M0 0 C3.3 0 6.6 0 10 0 C10 7.59 10 15.18 10 23 C6.7 23 3.4 23 0 23 C0 15.41 0 7.82 0 0 Z " fill="#0C0201" transform="translate(390,266)"/>
<path d="M0 0 C2.97 0 5.94 0 9 0 C10.62200515 1.62200515 10.1299075 3.42023031 10.1328125 5.65625 C10.13474609 7.06583984 10.13474609 7.06583984 10.13671875 8.50390625 C10.13285156 9.49261719 10.12898438 10.48132813 10.125 11.5 C10.12886719 12.48871094 10.13273437 13.47742188 10.13671875 14.49609375 C10.13542969 15.43582031 10.13414062 16.37554687 10.1328125 17.34375 C10.13168457 18.21193359 10.13055664 19.08011719 10.12939453 19.97460938 C10 22 10 22 9 23 C6.03 23 3.06 23 0 23 C0 15.41 0 7.82 0 0 Z " fill="#0D0201" transform="translate(255,266)"/>
<path d="M0 0 C4.29 0 8.58 0 13 0 C13 14.85 13 29.7 13 45 C14.32 45 15.64 45 17 45 C17 45.99 17 46.98 17 48 C14.36 48 11.72 48 9 48 C9 32.82 9 17.64 9 2 C6.03 2 3.06 2 0 2 C0 1.34 0 0.68 0 0 Z " fill="#180A0C" transform="translate(156,202)"/>
<path d="M0 0 C1.32 0 2.64 0 4 0 C4.07601651 7.33228928 4.12858578 14.66447707 4.16479492 21.99707031 C4.17988855 24.49190061 4.20036548 26.98670435 4.22631836 29.48144531 C4.2626754 33.06582186 4.27972078 36.64984782 4.29296875 40.234375 C4.30845261 41.35116638 4.32393646 42.46795776 4.33988953 43.61859131 C4.34011612 44.65936829 4.34034271 45.70014526 4.34057617 46.77246094 C4.34723801 47.68735291 4.35389984 48.60224487 4.36076355 49.54486084 C3.93425723 52.44740565 2.920677 53.82660599 1 56 C0.34 55.67 -0.32 55.34 -1 55 C-0.67 36.85 -0.34 18.7 0 0 Z " fill="#030000" transform="translate(414,153)"/>
<path d="M0 0 C2.97 0 5.94 0 9 0 C9 7.59 9 15.18 9 23 C6.03 23 3.06 23 0 23 C0 15.41 0 7.82 0 0 Z " fill="#020202" transform="translate(278,266)"/>
<path d="M0 0 C2.97 0 5.94 0 9 0 C9 7.59 9 15.18 9 23 C6.03 23 3.06 23 0 23 C0 15.41 0 7.82 0 0 Z " fill="#080001" transform="translate(165,266)"/>
<path d="M0 0 C2.97 0 5.94 0 9 0 C9 7.59 9 15.18 9 23 C6.03 23 3.06 23 0 23 C0 15.41 0 7.82 0 0 Z " fill="#080001" transform="translate(368,266)"/>
<path d="M0 0 C2.97 0 5.94 0 9 0 C9 7.59 9 15.18 9 23 C6.03 23 3.06 23 0 23 C0 15.41 0 7.82 0 0 Z " fill="#070102" transform="translate(323,266)"/>
<path d="M0 0 C2.97 0 5.94 0 9 0 C9 7.59 9 15.18 9 23 C6.03 23 3.06 23 0 23 C0 15.41 0 7.82 0 0 Z " fill="#060002" transform="translate(210,266)"/>
<path d="M0 0 C5.88986463 -0.07425639 11.77945566 -0.12865268 17.66967773 -0.16479492 C19.67265572 -0.17986465 21.6756008 -0.2003241 23.6784668 -0.22631836 C26.56046681 -0.26278127 29.44202984 -0.27974461 32.32421875 -0.29296875 C33.21711105 -0.30845261 34.11000336 -0.32393646 35.029953 -0.33988953 C39.80666362 -0.3411773 43.17666431 -0.22230422 47 3 C47.67278497 6.11633998 47.23328236 8.78070349 47 12 C43.37 12.33 39.74 12.66 36 13 C36 11.02 36 9.04 36 7 C26.1 7 16.2 7 6 7 C6 6.67 6 6.34 6 6 C15.9 6 25.8 6 36 6 C36 5.34 36 4.68 36 4 C37.32 3.34 38.64 2.68 40 2 C20.2 1.505 20.2 1.505 0 1 C0 0.67 0 0.34 0 0 Z " fill="#B6AD62" transform="translate(286,91)"/>
<path d="M0 0 C6.43995643 0.48603445 6.43995643 0.48603445 8.7121582 2.57128906 C10.47708143 5.8997168 10.37403265 8.93837993 10.29296875 12.609375 C10.28872391 13.33618469 10.28447906 14.06299438 10.28010559 14.81182861 C10.2633613 17.12493504 10.22571885 19.43715855 10.1875 21.75 C10.17244758 23.32160197 10.15876015 24.89321764 10.14648438 26.46484375 C10.11347195 30.31023415 10.06172056 34.15496756 10 38 C8.68 38 7.36 38 6 38 C5.98541748 37.14768799 5.97083496 36.29537598 5.95581055 35.41723633 C5.89456715 32.23928825 5.82037971 29.06197454 5.73754883 25.88452148 C5.70440194 24.51224042 5.67633829 23.13982638 5.65356445 21.76733398 C5.61983234 19.78862234 5.5659851 17.81028624 5.51171875 15.83203125 C5.48553467 14.64327393 5.45935059 13.4545166 5.43237305 12.22973633 C4.96223521 8.7179049 4.16159928 6.78830687 2 4 C1.01 3.67 0.02 3.34 -1 3 C-0.67 2.01 -0.34 1.02 0 0 Z " fill="#0C0000" transform="translate(159,156)"/>
<path d="M0 0 C1.95994287 1.01117425 3.89196614 2.06226851 5.81982422 3.13330078 C7.13343461 3.85109962 8.44723134 4.56855757 9.76123047 5.28564453 C10.91494141 5.91599609 12.06865234 6.54634766 13.25732422 7.19580078 C14.58599292 7.87171624 15.91656989 8.54418736 17.25732422 9.19580078 C17.25732422 9.52580078 17.25732422 9.85580078 17.25732422 10.19580078 C6.12036163 10.85740252 -2.35927762 11.14034215 -11.74267578 4.19580078 C-11.08267578 3.53580078 -10.42267578 2.87580078 -9.74267578 2.19580078 C-9.74267578 1.20580078 -9.74267578 0.21580078 -9.74267578 -0.80419922 C-5.91735478 -2.07930622 -3.66377015 -1.69073394 0 0 Z " fill="#EBDF7C" transform="translate(410.74267578125,115.80419921875)"/>
<path d="M0 0 C1.32 0 2.64 0 4 0 C4.10957031 1.00160156 4.21914062 2.00320312 4.33203125 3.03515625 C5.2371296 12.95976657 5.2371296 12.95976657 9 22 C13.45093344 25.1053024 17.72462477 25.54522627 23 26 C20.25191738 28.74808262 18.52225466 28.3636712 14.6875 28.4375 C8.49813686 28.34185863 8.49813686 28.34185863 4.8125 25.8125 C-0.44433133 17.65534793 -0.13725991 9.42518022 0 0 Z " fill="#1A0504" transform="translate(195,222)"/>
<path d="M0 0 C0.33 0.66 0.66 1.32 1 2 C0.54874756 2.8029248 0.54874756 2.8029248 0.08837891 3.62207031 C-1.46764392 7.0217254 -1.35709694 10.37316722 -1.4140625 14.046875 C-1.43342865 14.81807678 -1.4527948 15.58927856 -1.4727478 16.3838501 C-1.53237077 18.83912205 -1.57885914 21.29444133 -1.625 23.75 C-1.66319575 25.41798882 -1.70224841 27.08595826 -1.7421875 28.75390625 C-1.83805791 32.83577943 -1.92215235 36.91774493 -2 41 C-3.32 41 -4.64 41 -6 41 C-6.07462728 36.71333264 -6.12882508 32.42701793 -6.16479492 28.13989258 C-6.17980313 26.68409632 -6.20021633 25.22834468 -6.22631836 23.77270508 C-6.26305676 21.66997211 -6.2798056 19.56784115 -6.29296875 17.46484375 C-6.3086792 16.202771 -6.32438965 14.94069824 -6.34057617 13.64038086 C-5.88558675 8.77704944 -4.58333033 4.81789778 -1.3125 1.0625 C-0.6628125 0.5365625 -0.6628125 0.5365625 0 0 Z " fill="#140201" transform="translate(149,153)"/>
<path d="M0 0 C0.33 0.66 0.66 1.32 1 2 C0.01 2.495 0.01 2.495 -1 3 C-3.17282569 4.76826954 -3.17282569 4.76826954 -3.265625 6.98046875 C-3.25140615 8.98888143 -3.13142025 10.99584122 -3 13 C-3.66 13 -4.32 13 -5 13 C-5 13.66 -5 14.32 -5 15 C-7.466761 17.57265731 -8.8618243 17.98827695 -12.453125 18.29296875 C-13.70609375 18.25816406 -14.9590625 18.22335938 -16.25 18.1875 C-17.51328125 18.16042969 -18.7765625 18.13335937 -20.078125 18.10546875 C-21.04234375 18.07066406 -22.0065625 18.03585938 -23 18 C-18.96089434 13.71489772 -14.54340298 10.24358989 -9.8125 6.75 C-9.08869141 6.20859375 -8.36488281 5.6671875 -7.61914062 5.109375 C-2.29613095 1.14806548 -2.29613095 1.14806548 0 0 Z " fill="#0E0B0D" transform="translate(228,57)"/>
<path d="M0 0 C1.42056278 0.91061716 2.83627705 1.82879989 4.25 2.75 C5.03890625 3.26046875 5.8278125 3.7709375 6.640625 4.296875 C9 6 9 6 13 10 C-8.45 10 -29.9 10 -52 10 C-48.06976569 8.03488284 -46.69578987 7.75368904 -42.49707031 7.77294922 C-41.39623108 7.77310028 -40.29539185 7.77325134 -39.16119385 7.77340698 C-37.38757477 7.78889084 -37.38757477 7.78889084 -35.578125 7.8046875 C-33.75544098 7.80893234 -33.75544098 7.80893234 -31.89593506 7.81326294 C-28.01385665 7.82446046 -24.13200871 7.84956466 -20.25 7.875 C-17.61849291 7.88503034 -14.98698221 7.89415609 -12.35546875 7.90234375 C-5.90356716 7.92439843 0.54819995 7.95787196 7 8 C7 7.34 7 6.68 7 6 C6.21625 5.7525 5.4325 5.505 4.625 5.25 C1.6083499 3.81349995 1.28434435 2.95279169 0 0 Z " fill="#E5987B" transform="translate(336,65)"/>
<path d="M0 0 C3.63 0 7.26 0 11 0 C11 11.55 11 23.1 11 35 C7.37 35 3.74 35 0 35 C0 23.45 0 11.9 0 0 Z M2 3 C2 12.9 2 22.8 2 33 C4.64 33 7.28 33 10 33 C10 22.77 10 12.54 10 2 C4.52174919 1.5527864 4.52174919 1.5527864 2 3 Z " fill="#E6E088" transform="translate(232,91)"/>
<path d="M0 0 C0.33 0 0.66 0 1 0 C1.33 10.56 1.66 21.12 2 32 C2.99 32 3.98 32 5 32 C5.86625 33.36125 5.86625 33.36125 6.75 34.75 C9.75970208 39.09734745 13.10931315 41.39756264 18.23046875 42.46484375 C20.14597907 42.71233446 22.07330578 42.86479339 24 43 C24 43.66 24 44.32 24 45 C21.77144426 45.0814222 19.54202345 45.13938079 17.3125 45.1875 C15.45044922 45.23970703 15.45044922 45.23970703 13.55078125 45.29296875 C9.80008965 44.98350575 7.93281045 44.31596695 5 42 C5 41.34 5 40.68 5 40 C4.34 40 3.68 40 3 40 C-0.33954817 35.86172081 -0.39966623 31.95317955 -0.29296875 26.85546875 C-0.28872391 26.08568192 -0.28447906 25.31589508 -0.28010559 24.52278137 C-0.26338597 22.07732354 -0.2257477 19.63270643 -0.1875 17.1875 C-0.17244441 15.52410049 -0.15875754 13.86068799 -0.14648438 12.19726562 C-0.11350465 8.13118918 -0.06177006 4.06573687 0 0 Z " fill="#0F0E0D" transform="translate(345,205)"/>
<path d="M0 0 C2.4174326 0.8790664 3.48719048 1.72460205 5.0625 3.75 C6.14667984 7.02451615 6.16584665 10.06888127 6.125 13.5 C6.11597656 14.48484375 6.10695312 15.4696875 6.09765625 16.484375 C6.08605469 17.23203125 6.07445312 17.9796875 6.0625 18.75 C7.3825 18.75 8.7025 18.75 10.0625 18.75 C10.0625 19.74 10.0625 20.73 10.0625 21.75 C7.4225 21.75 4.7825 21.75 2.0625 21.75 C1.96453125 20.62980469 1.8665625 19.50960937 1.765625 18.35546875 C1.61553546 16.88271516 1.46444123 15.41006371 1.3125 13.9375 C1.2196875 12.83051758 1.2196875 12.83051758 1.125 11.70117188 C0.68173531 7.25237375 0.68173531 7.25237375 -2.015625 3.86328125 C-2.64984375 3.49589844 -3.2840625 3.12851563 -3.9375 2.75 C-3.9375 2.09 -3.9375 1.43 -3.9375 0.75 C-1.9375 -0.25 -1.9375 -0.25 0 0 Z " fill="#130001" transform="translate(213.9375,155.25)"/>
<path d="M0 0 C3.3 0 6.6 0 10 0 C10 7.92 10 15.84 10 24 C7.03 24 4.06 24 1 24 C0 23 0 23 -0.11352539 20.77514648 C-0.10828857 19.81680908 -0.10305176 18.85847168 -0.09765625 17.87109375 C-0.09443359 16.83662109 -0.09121094 15.80214844 -0.08789062 14.73632812 C-0.07951172 13.64771484 -0.07113281 12.55910156 -0.0625 11.4375 C-0.05798828 10.34501953 -0.05347656 9.25253906 -0.04882812 8.12695312 C-0.0369984 5.41794568 -0.01906231 2.7089662 0 0 Z M2 1 C2 7.93 2 14.86 2 22 C3.98 22.33 5.96 22.66 8 23 C8 15.74 8 8.48 8 1 C6.02 1 4.04 1 2 1 Z " fill="#250603" transform="translate(187,266)"/>
<path d="M0 0 C0.66 0 1.32 0 2 0 C2 13.86 2 27.72 2 42 C3.98 42 5.96 42 8 42 C8.33 42.99 8.66 43.98 9 45 C2.84765625 45.09765625 2.84765625 45.09765625 1 45 C0 44 0 44 -0.12025452 42.20933533 C-0.11803391 41.42990067 -0.11581329 40.650466 -0.11352539 39.84741211 C-0.11341209 38.52615578 -0.11341209 38.52615578 -0.11329651 37.1782074 C-0.10555458 35.74227989 -0.10555458 35.74227989 -0.09765625 34.27734375 C-0.0962413 33.30213272 -0.09482635 32.32692169 -0.09336853 31.32215881 C-0.08775133 28.19390857 -0.07519593 25.06572877 -0.0625 21.9375 C-0.05748722 19.82226666 -0.05292393 17.70703219 -0.04882812 15.59179688 C-0.03777631 10.39450704 -0.02102146 5.19725855 0 0 Z " fill="#2A0201" transform="translate(143,205)"/>
<path d="M0 0 C1 3 1 3 0 6 C-0.15179014 8.3555448 -0.24899289 10.71475123 -0.31640625 13.07421875 C-0.33718735 13.7580513 -0.35796844 14.44188385 -0.37937927 15.1464386 C-0.44466154 17.3266921 -0.50366017 19.50706405 -0.5625 21.6875 C-0.60570553 23.16732986 -0.64932047 24.64714783 -0.69335938 26.12695312 C-0.80032083 29.75117622 -0.90164823 33.37553189 -1 37 C-1.99 37 -2.98 37 -4 37 C-4.09917794 32.53432237 -4.17161225 28.06923493 -4.21972656 23.6027832 C-4.23979203 22.0847659 -4.26705134 20.56682541 -4.30175781 19.04907227 C-4.35050393 16.86194878 -4.37301805 14.67585048 -4.390625 12.48828125 C-4.41157227 11.17384033 -4.43251953 9.85939941 -4.45410156 8.50512695 C-3.93371011 4.48832046 -2.78629985 2.86583955 0 0 Z " fill="#060201" transform="translate(349,157)"/>
<path d="M0 0 C1.0128853 1.99453625 1.99424984 3.98691775 2.89453125 6.03515625 C4.89390243 10.45078876 6.32773016 13.08861688 11 15 C13.65691983 15.77679034 16.29266331 16.40346819 19 17 C17 19 17 19 13.25 19.25 C8.37270027 19.10862899 4.5923712 18.24807472 0.6875 15.1875 C-2.17143605 11.48147178 -2.08461855 8.84618554 -1.625 4.25 C-1 1 -1 1 0 0 Z " fill="#17090A" transform="translate(395,201)"/>
<path d="M0 0 C12.55672515 6.04678363 12.55672515 6.04678363 18 10 C18 10.33 18 10.66 18 11 C15.39555652 11.05394705 12.79223002 11.09364469 10.1875 11.125 C9.44951172 11.14175781 8.71152344 11.15851563 7.95117188 11.17578125 C4.08753574 11.21074628 2.29096332 11.19397555 -1 9 C-1 8.34 -1 7.68 -1 7 C-0.34 6.67 0.32 6.34 1 6 C0.67 4.02 0.34 2.04 0 0 Z " fill="#F4E47A" transform="translate(182,115)"/>
<path d="M0 0 C3.3 0 6.6 0 10 0 C10 7.92 10 15.84 10 24 C6.7 24 3.4 24 0 24 C0 16.08 0 8.16 0 0 Z M2 1 C2 7.93 2 14.86 2 22 C4.31 22 6.62 22 9 22 C9 15.07 9 8.14 9 1 C6.69 1 4.38 1 2 1 Z " fill="#210506" transform="translate(232,266)"/>
<path d="M0 0 C3.3 0 6.6 0 10 0 C10 7.92 10 15.84 10 24 C6.7 24 3.4 24 0 24 C0 16.08 0 8.16 0 0 Z M3 1 C3.04125 1.763125 3.0825 2.52625 3.125 3.3125 C3 6 3 6 1 9 C0.72122601 11.14943335 0.72122601 11.14943335 0.8125 13.4375 C0.81894531 14.19933594 0.82539063 14.96117187 0.83203125 15.74609375 C0.99548229 17.93937857 1.39883487 19.88870807 2 22 C4.31 22 6.62 22 9 22 C9 15.07 9 8.14 9 1 C7.02 1 5.04 1 3 1 Z " fill="#230505" transform="translate(412,266)"/>
<path d="M0 0 C6.44521619 0.48643141 6.44521619 0.48643141 8.7121582 2.58496094 C10.50728262 5.95128714 10.33823532 8.58823271 10.29296875 12.390625 C10.28872391 13.09523865 10.28447906 13.79985229 10.28010559 14.52581787 C10.26336538 16.76760712 10.22572404 19.00848431 10.1875 21.25 C10.17244704 22.77342448 10.1587597 24.29686311 10.14648438 25.8203125 C10.11347791 29.54716941 10.06172854 33.27349563 10 37 C9.67 37 9.34 37 9 37 C8.67 27.76 8.34 18.52 8 9 C7.01 9 6.02 9 5 9 C3.98133771 7.34467377 2.98189187 5.67739862 2 4 C1.01 3.67 0.02 3.34 -1 3 C-0.67 2.01 -0.34 1.02 0 0 Z " fill="#231A19" transform="translate(159,156)"/>
<path d="M0 0 C8.58 0 17.16 0 26 0 C26.33 0.99 26.66 1.98 27 3 C17.76 3 8.52 3 -1 3 C-0.67 2.01 -0.34 1.02 0 0 Z " fill="#FEEE85" transform="translate(156,94)"/>
<path d="M0 0 C2.97 0 5.94 0 9 0 C9 7.59 9 15.18 9 23 C6.03 23 3.06 23 0 23 C0 15.41 0 7.82 0 0 Z M1 2 C1 8.6 1 15.2 1 22 C2.98 21.67 4.96 21.34 7 21 C7.33 14.4 7.66 7.8 8 1 C4.79788698 0.87873219 4.79788698 0.87873219 1 2 Z " fill="#120100" transform="translate(278,266)"/>
<path d="M0 0 C1 2 1 2 0.4765625 3.7421875 C0.19554687 4.44601563 -0.08546875 5.14984375 -0.375 5.875 C-2.10041539 10.70616309 -2.51230367 15.29816757 -2.7890625 20.3984375 C-3 23 -3 23 -4 26 C-3.72230092 28.3406065 -3.39460023 30.67624308 -3 33 C-7.21293022 28.78706978 -6.24495263 22.69579845 -6.25317383 17.08325195 C-6.16777005 11.08927329 -5.67782165 5.83419079 -1.39453125 1.30078125 C-0.93433594 0.87152344 -0.47414062 0.44226563 0 0 Z " fill="#130101" transform="translate(202,153)"/>
<path d="M0 0 C0.66 0 1.32 0 2 0 C2.10829314 2.89684158 2.18743954 5.78961019 2.25 8.6875 C2.28351563 9.50412109 2.31703125 10.32074219 2.3515625 11.16210938 C2.42031147 15.40735834 2.37134905 17.4321814 -0.015625 21.08203125 C-0.67046875 21.71496094 -1.3253125 22.34789062 -2 23 C-2.66 22.67 -3.32 22.34 -4 22 C-3.67 21.67 -3.34 21.34 -3 21 C-2.78574169 19.52697414 -2.62954945 18.04537853 -2.5 16.5625 C-2.4175 15.66789063 -2.335 14.77328125 -2.25 13.8515625 C-2.1675 12.91054687 -2.085 11.96953125 -2 11 C-1.83741118 9.1454713 -1.67095344 7.29127634 -1.5 5.4375 C-1.4278125 4.61121094 -1.355625 3.78492188 -1.28125 2.93359375 C-1 1 -1 1 0 0 Z " fill="#0F0404" transform="translate(416,216)"/>
<path d="M0 0 C0.99 0 1.98 0 3 0 C3.33 0.99 3.66 1.98 4 3 C6.70716242 3.90238747 8.23776768 4.11851302 11.01171875 4.09765625 C11.76904297 4.09443359 12.52636719 4.09121094 13.30664062 4.08789062 C14.09232422 4.07951172 14.87800781 4.07113281 15.6875 4.0625 C16.88342773 4.05573242 16.88342773 4.05573242 18.10351562 4.04882812 C20.06904257 4.0370585 22.03453085 4.01912348 24 4 C20.08141772 7.91858228 14.13720565 8.14535677 8.8125 8.3125 C4.7757011 8.24407968 2.23200086 7.58560069 -1 5 C-0.67 3.35 -0.34 1.7 0 0 Z " fill="#1F090A" transform="translate(394,242)"/>
<path d="M0 0 C4.29 0.33 8.58 0.66 13 1 C12.01 1.66 11.02 2.32 10 3 C9.34786708 5.02463255 9.34786708 5.02463255 9 7 C8.67 7.33 8.34 7.66 8 8 C5.30917128 7.82364548 2.67148554 7.38164079 0 7 C-1 4 -1 4 0 0 Z " fill="#EEE2E2" transform="translate(398,239)"/>
<path d="M0 0 C3.25 1.375 3.25 1.375 6 3 C6.33 3.99 6.66 4.98 7 6 C5.06318839 6.08107583 3.1254066 6.13922475 1.1875 6.1875 C0.10855469 6.22230469 -0.97039062 6.25710937 -2.08203125 6.29296875 C-5 6 -5 6 -6.88671875 4.48828125 C-7.43779297 3.75158203 -7.43779297 3.75158203 -8 3 C-7.67 2.01 -7.34 1.02 -7 0 C-4.23868631 -1.38065685 -2.96128936 -0.80762437 0 0 Z " fill="#F8E978" transform="translate(414,118)"/>
<path d="M0 0 C0.66 0 1.32 0 2 0 C2 7.59 2 15.18 2 23 C4.97 23 7.94 23 11 23 C11 23.66 11 24.32 11 25 C9.35425434 25.02688151 7.70838587 25.04634123 6.0625 25.0625 C5.14597656 25.07410156 4.22945312 25.08570313 3.28515625 25.09765625 C1 25 1 25 0 24 C-0.08726223 22.21928754 -0.10699041 20.4351686 -0.09765625 18.65234375 C-0.09443359 17.57275391 -0.09121094 16.49316406 -0.08789062 15.38085938 C-0.07951172 14.24455078 -0.07113281 13.10824219 -0.0625 11.9375 C-0.05798828 10.79732422 -0.05347656 9.65714844 -0.04882812 8.48242188 C-0.03699747 5.65489649 -0.0205141 2.8274736 0 0 Z " fill="#671F1A" transform="translate(163,266)"/>
<path d="M0 0 C0.66 0.33 1.32 0.66 2 1 C2 17.17 2 33.34 2 50 C2.66 50 3.32 50 4 50 C3.01 52.475 3.01 52.475 2 55 C1.01 55 0.02 55 -1 55 C-0.67 36.85 -0.34 18.7 0 0 Z " fill="#220404" transform="translate(414,153)"/>
<path d="M0 0 C0.8971875 0.309375 0.8971875 0.309375 1.8125 0.625 C1.8125 2.935 1.8125 5.245 1.8125 7.625 C-1.4875 7.955 -4.7875 8.285 -8.1875 8.625 C-8.1875 6.315 -8.1875 4.005 -8.1875 1.625 C-7.1975 1.625 -6.2075 1.625 -5.1875 1.625 C-2.1875 -0.375 -2.1875 -0.375 0 0 Z " fill="#F9EB7F" transform="translate(331.1875,95.375)"/>
<path d="M0 0 C0 0.66 0 1.32 0 2 C-3.08809695 3.76462683 -4.23312136 4 -8 4 C-8 4.66 -8 5.32 -8 6 C-8.99 6 -9.98 6 -11 6 C-11 6.66 -11 7.32 -11 8 C-12.65 7.67 -14.3 7.34 -16 7 C-15.875 4.6875 -15.875 4.6875 -15 2 C-10.0353561 -1.72348292 -5.75941239 -1.06229162 0 0 Z " fill="#F7E577" transform="translate(415,93)"/>
<path d="M0 0 C0.33 0 0.66 0 1 0 C0.99045288 1.48209961 0.99045288 1.48209961 0.98071289 2.99414062 C0.96618239 6.69233816 0.99780304 10.38900055 1.04272461 14.08691406 C1.05579039 15.6812617 1.05666661 17.27576109 1.04467773 18.87011719 C0.71143922 29.73534122 0.71143922 29.73534122 5.55859375 39.09375 C7.38385 40.81168983 7.38385 40.81168983 9 42 C8.01 42.495 8.01 42.495 7 43 C6.34 42.67 5.68 42.34 5 42 C5 41.34 5 40.68 5 40 C4.34 40 3.68 40 3 40 C-0.33954817 35.86172081 -0.39966623 31.95317955 -0.29296875 26.85546875 C-0.28872391 26.08568192 -0.28447906 25.31589508 -0.28010559 24.52278137 C-0.26338597 22.07732354 -0.2257477 19.63270643 -0.1875 17.1875 C-0.17244441 15.52410049 -0.15875754 13.86068799 -0.14648438 12.19726562 C-0.11350465 8.13118918 -0.06177006 4.06573687 0 0 Z " fill="#160000" transform="translate(345,205)"/>
<path d="M0 0 C1.32 0.33 2.64 0.66 4 1 C4.33 2.32 4.66 3.64 5 5 C3.68 5 2.36 5 1 5 C0.83510632 15.04821399 0.83510632 15.04821399 2 25 C-1.83500795 21.16499205 -2.15059511 16.71875686 -2.25 11.5 C-2.18153815 7.3181223 -1.67905821 3.8828221 0 0 Z " fill="#7E2D2B" transform="translate(209,158)"/>
<path d="M0 0 C0.33 0 0.66 0 1 0 C1.33 15.51 1.66 31.02 2 47 C0.68 46.34 -0.64 45.68 -2 45 C-2 44.34 -2 43.68 -2 43 C-1.34 43 -0.68 43 0 43 C0 28.81 0 14.62 0 0 Z " fill="#F89976" transform="translate(282,324)"/>
<path d="M0 0 C2.97 0 5.94 0 9 0 C9 0.66 9 1.32 9 2 C6.36 2.33 3.72 2.66 1 3 C1 12.9 1 22.8 1 33 C0.67 33 0.34 33 0 33 C0 22.11 0 11.22 0 0 Z " fill="#6F0D09" transform="translate(357,201)"/>
<path d="M0 0 C1.32 0 2.64 0 4 0 C4 1.32 4 2.64 4 4 C7.63 4 11.26 4 15 4 C10.7952889 7.15353333 10.14908143 7.36246719 5.25 7.1875 C3.77273437 7.14689453 3.77273437 7.14689453 2.265625 7.10546875 C1.14414063 7.05326172 1.14414063 7.05326172 0 7 C0 4.69 0 2.38 0 0 Z " fill="#250D0D" transform="translate(243,153)"/>
<path d="M0 0 C1.62463842 -0.05395478 3.24978541 -0.09277195 4.875 -0.125 C5.77992188 -0.14820313 6.68484375 -0.17140625 7.6171875 -0.1953125 C10 0 10 0 12 2 C10.35 2.33 8.7 2.66 7 3 C7 3.66 7 4.32 7 5 C8.32 5.33 9.64 5.66 11 6 C10.01 7.485 10.01 7.485 9 9 C8.34 8.34 7.68 7.68 7 7 C4.41645782 6.83312552 4.41645782 6.83312552 2 7 C1.67 5.68 1.34 4.36 1 3 C1.66 2.67 2.32 2.34 3 2 C2.01 1.34 1.02 0.68 0 0 Z " fill="#F3EDEA" transform="translate(208,149)"/>
<path d="M0 0 C0.33 0.99 0.66 1.98 1 3 C0.3042688 4.11894653 0.3042688 4.11894653 -0.40551758 5.26049805 C-2.37413995 8.64281493 -2.42591769 10.93666302 -2.51171875 14.83203125 C-2.54716797 16.12431641 -2.58261719 17.41660156 -2.61914062 18.74804688 C-2.64223681 20.10285934 -2.66501935 21.45767718 -2.6875 22.8125 C-2.72069761 24.18688117 -2.75518953 25.56123171 -2.79101562 26.93554688 C-2.87341264 30.29028234 -2.94259395 33.64475904 -3 37 C-3.33 37 -3.66 37 -4 37 C-4.09917794 32.53432237 -4.17161225 28.06923493 -4.21972656 23.6027832 C-4.23979203 22.0847659 -4.26705134 20.56682541 -4.30175781 19.04907227 C-4.35050393 16.86194878 -4.37301805 14.67585048 -4.390625 12.48828125 C-4.41157227 11.17384033 -4.43251953 9.85939941 -4.45410156 8.50512695 C-3.93371011 4.48832046 -2.78629985 2.86583955 0 0 Z " fill="#180000" transform="translate(349,157)"/>
<path d="M0 0 C0.33 0 0.66 0 1 0 C1.07347656 1.37671875 1.07347656 1.37671875 1.1484375 2.78125 C1.5534256 9.42864086 2.08416358 15.61387859 4 22 C2.68 22 1.36 22 0 22 C-0.36116046 20.5225254 -0.71375048 19.04295325 -1.0625 17.5625 C-1.25972656 16.73878906 -1.45695313 15.91507813 -1.66015625 15.06640625 C-1.82837891 14.04353516 -1.82837891 14.04353516 -2 13 C-1.67 12.67 -1.34 12.34 -1 12 C-0.76572222 9.98405418 -0.58663876 7.961526 -0.4375 5.9375 C-0.35371094 4.83277344 -0.26992187 3.72804687 -0.18359375 2.58984375 C-0.12300781 1.73519531 -0.06242188 0.88054687 0 0 Z " fill="#1F1C1B" transform="translate(199,164)"/>
<path d="M0 0 C0 1.65 0 3.3 0 5 C-0.66 5 -1.32 5 -2 5 C-2 5.66 -2 6.32 -2 7 C-5.59007126 5.66654496 -8.79570907 4.1056769 -12 2 C-12 1.67 -12 1.34 -12 1 C-10.37512529 0.83211627 -8.75009558 0.66573213 -7.125 0.5 C-6.22007812 0.4071875 -5.31515625 0.314375 -4.3828125 0.21875 C-2 0 -2 0 0 0 Z " fill="#0E0B05" transform="translate(192,112)"/>
<path d="M0 0 C0.66 0 1.32 0 2 0 C1.67 1.65 1.34 3.3 1 5 C-0.98 5.33 -2.96 5.66 -5 6 C-5.33 6.99 -5.66 7.98 -6 9 C-7.75 10 -7.75 10 -10 11 C-11.299375 11.8353125 -11.299375 11.8353125 -12.625 12.6875 C-13.40875 13.120625 -14.1925 13.55375 -15 14 C-15.66 13.67 -16.32 13.34 -17 13 C-3.09550562 2 -3.09550562 2 0 2 C0 1.34 0 0.68 0 0 Z " fill="#75211D" transform="translate(281,27)"/>
<path d="M0 0 C3.34373475 0.55728913 6.03312999 1.35173889 9 3 C9 3.33 9 3.66 9 4 C3.06 4 -2.88 4 -9 4 C-9.33 3.34 -9.66 2.68 -10 2 C-6.7 1.67 -3.4 1.34 0 1 C0 0.67 0 0.34 0 0 Z " fill="#D8D381" transform="translate(419,122)"/>
<path d="M0 0 C3.86848614 1.11756266 6.28922757 2.02873292 9 5 C6.37438891 5.08074203 3.75124324 5.1403623 1.125 5.1875 C0.00544922 5.22520508 0.00544922 5.22520508 -1.13671875 5.26367188 C-3.3046875 5.29296875 -3.3046875 5.29296875 -7 5 C-7.66 4.01 -8.32 3.02 -9 2 C-5.7 2 -2.4 2 1 2 C0.67 1.34 0.34 0.68 0 0 Z " fill="#DDD783" transform="translate(191,121)"/>
<path d="M0 0 C5.28 0 10.56 0 16 0 C14.71567636 2.56864728 13.63365249 2.946539 11 4 C9.68 4 8.36 4 7 4 C7 3.34 7 2.68 7 2 C4.36 2 1.72 2 -1 2 C-0.67 1.34 -0.34 0.68 0 0 Z " fill="#D4D388" transform="translate(408,91)"/>
<path d="M0 0 C0.33 0.66 0.66 1.32 1 2 C-3.9879508 6.72263427 -8.62229583 10.36095 -15 13 C-15.66 12.67 -16.32 12.34 -17 12 C-14.54301039 10.18565366 -12.08448741 8.37345469 -9.625 6.5625 C-8.92632812 6.04623047 -8.22765625 5.52996094 -7.5078125 4.99804688 C-6.50234375 4.25844727 -6.50234375 4.25844727 -5.4765625 3.50390625 C-4.85861816 3.04830322 -4.24067383 2.5927002 -3.60400391 2.12329102 C-2 1 -2 1 0 0 Z " fill="#6F201C" transform="translate(255,47)"/>
<path d="M0 0 C1.32 0 2.64 0 4 0 C4 1.65 4 3.3 4 5 C4.99 5.33 5.98 5.66 7 6 C6.34 6 5.68 6 5 6 C5 6.66 5 7.32 5 8 C3.35 8 1.7 8 0 8 C0 5.36 0 2.72 0 0 Z " fill="#1E0306" transform="translate(139,197)"/>
<path d="M0 0 C3 1 3 1 4.6875 4.0625 C5.120625 5.031875 5.55375 6.00125 6 7 C5.360625 7.12375 4.72125 7.2475 4.0625 7.375 C3.0415625 7.684375 3.0415625 7.684375 2 8 C1.67 8.66 1.34 9.32 1 10 C0.01 7.03 -0.98 4.06 -2 1 C-1.34 0.67 -0.68 0.34 0 0 Z " fill="#1D0D0F" transform="translate(201,185)"/>
<path d="M0 0 C0.99 0 1.98 0 3 0 C3 3.96 3 7.92 3 12 C2.34 12 1.68 12 1 12 C-0.26237731 9.47524538 -0.09856404 7.68799534 -0.0625 4.875 C-0.05347656 3.96492187 -0.04445312 3.05484375 -0.03515625 2.1171875 C-0.02355469 1.41851562 -0.01195312 0.71984375 0 0 Z " fill="#080303" transform="translate(196,222)"/>
<path d="M0 0 C1.18851562 0.10183594 2.37703125 0.20367187 3.6015625 0.30859375 C4.51679688 0.39238281 5.43203125 0.47617188 6.375 0.5625 C6.375 1.2225 6.375 1.8825 6.375 2.5625 C1.755 2.5625 -2.865 2.5625 -7.625 2.5625 C-7.955 1.9025 -8.285 1.2425 -8.625 0.5625 C-5.68113377 -0.90943312 -3.25109964 -0.28686173 0 0 Z " fill="#150201" transform="translate(362.625,247.4375)"/>
<path d="M0 0 C0.33 0 0.66 0 1 0 C1.16831775 2.41656194 1.33471262 4.83323049 1.5 7.25 C1.54769531 7.93191406 1.59539062 8.61382812 1.64453125 9.31640625 C1.86478719 12.55731503 2 15.7493366 2 19 C-0.31 19.33 -2.62 19.66 -5 20 C-3.68 19.67 -2.36 19.34 -1 19 C-0.67 12.73 -0.34 6.46 0 0 Z " fill="#410F0E" transform="translate(217,220)"/>
<path d="M0 0 C2.31 0 4.62 0 7 0 C6.67 2.97 6.34 5.94 6 9 C5.67 9 5.34 9 5 9 C5 7.35 5 5.7 5 4 C4.30132812 4.02320313 3.60265625 4.04640625 2.8828125 4.0703125 C1.97273438 4.08835938 1.06265625 4.10640625 0.125 4.125 C-0.77992188 4.14820313 -1.68484375 4.17140625 -2.6171875 4.1953125 C-5 4 -5 4 -7 2 C-3.37 2 0.26 2 4 2 C2.68 1.34 1.36 0.68 0 0 Z " fill="#602723" transform="translate(408,217)"/>
<path d="M0 0 C0.33 0 0.66 0 1 0 C1.99 3.63 2.98 7.26 4 11 C3.01 11 2.02 11 1 11 C-1.27837542 8.72162458 -1.96646289 7.49187763 -2.1875 4.25 C-2.125625 3.5075 -2.06375 2.765 -2 2 C-1.34 2 -0.68 2 0 2 C0 1.34 0 0.68 0 0 Z " fill="#1A1B1A" transform="translate(199,232)"/>
<path d="M0 0 C3.53233755 1.17744585 3.86308075 1.95605641 5.6875 5.0625 C6.12449219 5.79597656 6.56148437 6.52945313 7.01171875 7.28515625 C7.33785156 7.85105469 7.66398438 8.41695312 8 9 C7.01 9.495 7.01 9.495 6 10 C2.64888166 7.76592111 1.18446044 6.73784176 0.1875 2.75 C0.125625 1.8425 0.06375 0.935 0 0 Z " fill="#161313" transform="translate(207,194)"/>
<path d="M0 0 C0.33 0 0.66 0 1 0 C1 3.96 1 7.92 1 12 C0.01 12 -0.98 12 -2 12 C-2.28571429 3.42857143 -2.28571429 3.42857143 0 0 Z " fill="#161113" transform="translate(219,163)"/>
<path d="M0 0 C2.3907833 0.86937574 3.51588876 1.73940539 5.0625 3.75 C5.0625 4.74 5.0625 5.73 5.0625 6.75 C3.7425 6.09 2.4225 5.43 1.0625 4.75 C1.0625 4.09 1.0625 3.43 1.0625 2.75 C-0.5875 2.75 -2.2375 2.75 -3.9375 2.75 C-3.9375 2.09 -3.9375 1.43 -3.9375 0.75 C-1.9375 -0.25 -1.9375 -0.25 0 0 Z " fill="#171515" transform="translate(213.9375,155.25)"/>
<path d="M0 0 C0.33 0 0.66 0 1 0 C1 3.96 1 7.92 1 12 C-1.31 12.33 -3.62 12.66 -6 13 C-5.34 11.35 -4.68 9.7 -4 8 C-3.34 8 -2.68 8 -2 8 C-2 8.99 -2 9.98 -2 11 C-1.34 11 -0.68 11 0 11 C0 7.37 0 3.74 0 0 Z " fill="#FDF183" transform="translate(380,112)"/>
<path d="M0 0 C4.59306496 1.4859916 7.43569245 3.85014682 11 7 C8 8 8 8 6.0625 7.3125 C3.66720181 5.78821933 1.86826759 4.13516296 0 2 C0 1.34 0 0.68 0 0 Z " fill="#E3957B" transform="translate(284,27)"/>
<path d="M0 0 C2.475 0.495 2.475 0.495 5 1 C5.33 1.99 5.66 2.98 6 4 C7.65 4 9.3 4 11 4 C11 4.99 11 5.98 11 7 C7.87691494 6.39196574 5.80748338 5.37985958 3.25 3.5 C2.63640625 3.0565625 2.0228125 2.613125 1.390625 2.15625 C0.93171875 1.7746875 0.4728125 1.393125 0 1 C0 0.67 0 0.34 0 0 Z " fill="#535486" transform="translate(80,220)"/>
<path d="M0 0 C0.66 0.33 1.32 0.66 2 1 C0.5023304 3.49824035 -1.01558218 5.86004673 -3 8 C-5.8125 8.4375 -5.8125 8.4375 -8 8 C-6 5 -6 5 -4 3 C-3.01 3 -2.02 3 -1 3 C-0.67 2.01 -0.34 1.02 0 0 Z " fill="#302E39" transform="translate(98,152)"/>
<path d="M0 0 C-1.20381448 2.49361571 -2.45428722 4.68143083 -4 7 C-6.475 6.01 -6.475 6.01 -9 5 C-6.45523312 2.20075644 -3.92372883 0 0 0 Z " fill="#7D241E" transform="translate(222,246)"/>
<path d="M0 0 C4.81033104 2.54664585 8.32442148 4.99027798 12 9 C7.13884258 8.58332936 5.23605579 6.49843869 2 3 C1.34 2.67 0.68 2.34 0 2 C0 1.34 0 0.68 0 0 Z " fill="#DC977A" transform="translate(322,55)"/>
<path d="M0 0 C2.31 0 4.62 0 7 0 C6.360625 0.309375 5.72125 0.61875 5.0625 0.9375 C3.06389179 1.8345163 3.06389179 1.8345163 2 3 C1.76712992 4.68183948 1.58735834 6.3712416 1.4375 8.0625 C1.35371094 8.98160156 1.26992187 9.90070313 1.18359375 10.84765625 C1.12300781 11.55792969 1.06242188 12.26820313 1 13 C0.67 13 0.34 13 0 13 C0 8.71 0 4.42 0 0 Z " fill="#E8D0D0" transform="translate(199,219)"/>
<path d="M0 0 C0.33 0.99 0.66 1.98 1 3 C-1.33333333 7.66666667 -1.33333333 7.66666667 -4 9 C-3.38461538 3.46153846 -3.38461538 3.46153846 -1.4375 1.125 C-0.963125 0.75375 -0.48875 0.3825 0 0 Z " fill="#260506" transform="translate(349,157)"/>
<path d="M0 0 C1.98 0 3.96 0 6 0 C6.33 0.99 6.66 1.98 7 3 C4.36 3 1.72 3 -1 3 C-0.67 2.01 -0.34 1.02 0 0 Z " fill="#270605" transform="translate(145,247)"/>
<path d="M0 0 C2.97 0.33 5.94 0.66 9 1 C7 3 7 3 5.0546875 3.1953125 C3.03645833 3.13020833 1.01822917 3.06510417 -1 3 C-0.67 2.01 -0.34 1.02 0 0 Z " fill="#120101" transform="translate(405,217)"/>
<path d="M0 0 C1.50539661 0.94983358 3.00420347 1.91011891 4.5 2.875 C5.75296875 3.67550781 5.75296875 3.67550781 7.03125 4.4921875 C7.6809375 4.98976562 8.330625 5.48734375 9 6 C9 6.66 9 7.32 9 8 C5.41209425 7.70100785 4.21833224 7.23013399 1.6875 4.5625 C0 2 0 2 0 0 Z " fill="#504F7A" transform="translate(470,164)"/>
<path d="M0 0 C1.98 0.495 1.98 0.495 4 1 C4.33 2.32 4.66 3.64 5 5 C3 5 1 5 -1 5 C-0.67 3.35 -0.34 1.7 0 0 Z " fill="#7F2221" transform="translate(209,158)"/>
<path d="M0 0 C0.66 0.33 1.32 0.66 2 1 C0.90716423 2.03295436 -0.19970579 3.05107835 -1.3125 4.0625 C-1.92738281 4.63097656 -2.54226563 5.19945312 -3.17578125 5.78515625 C-3.77777344 6.18605469 -4.37976563 6.58695312 -5 7 C-5.99 6.67 -6.98 6.34 -8 6 C-5.36 4.02 -2.72 2.04 0 0 Z " fill="#190301" transform="translate(302,358)"/>
<path d="M0 0 C1.0625 1.8125 1.0625 1.8125 2 4 C1.67 4.99 1.34 5.98 1 7 C0.34 7 -0.32 7 -1 7 C-1 6.01 -1 5.02 -1 4 C-3.64 4 -6.28 4 -9 4 C-9 3.67 -9 3.34 -9 3 C-6.03 3 -3.06 3 0 3 C0 2.01 0 1.02 0 0 Z " fill="#8C221B" transform="translate(311,287)"/>
<path d="M0 0 C0.99 0 1.98 0 3 0 C2 3 2 3 0.25 4.0625 C-2.15793173 5.06580489 -4.56873057 6.05450633 -7 7 C-4.66666667 4.66666667 -2.33333333 2.33333333 0 0 Z " fill="#545284" transform="translate(66,187)"/>
<path d="M0 0 C-1.5830577 4.2742558 -4.50568404 6.26531794 -8 9 C-6.68994234 5.06982701 -4.75047804 0 0 0 Z " fill="#F3EAE4" transform="translate(156,150)"/>
<path d="M0 0 C0.66 0.99 1.32 1.98 2 3 C-0.64 4.65 -3.28 6.3 -6 8 C-6 7.01 -6 6.02 -6 5 C-5.34 5 -4.68 5 -4 5 C-4 4.34 -4 3.68 -4 3 C-3.01 2.67 -2.02 2.34 -1 2 C-0.67 1.34 -0.34 0.68 0 0 Z " fill="#0D0B17" transform="translate(506,213)"/>
<path d="M0 0 C2.97 0 5.94 0 9 0 C9 0.66 9 1.32 9 2 C2.25 3.125 2.25 3.125 0 2 C0 1.34 0 0.68 0 0 Z " fill="#130000" transform="translate(357,201)"/>
<path d="M0 0 C2.66735273 2.48952921 4.55746343 4.63408134 6 8 C4.68 8 3.36 8 2 8 C0.23537317 4.91190305 0 3.76687864 0 0 Z " fill="#F5E1DC" transform="translate(215,191)"/>
<path d="M0 0 C0 0.99 0 1.98 0 3 C-2.64 3 -5.28 3 -8 3 C-6.23110084 -0.53779831 -3.70375662 0 0 0 Z " fill="#2F0504" transform="translate(224,174)"/>
<path d="M0 0 C0.33 0.66 0.66 1.32 1 2 C0.06553465 4.03144641 -0.93224776 6.03533587 -2 8 C-2.99 8 -3.98 8 -5 8 C-3.8141763 4.62496331 -2.72426311 2.35277269 0 0 Z " fill="#290D0A" transform="translate(149,153)"/>
<path d="M0 0 C1.98 0 3.96 0 6 0 C6 0.99 6 1.98 6 3 C4.02 3 2.04 3 0 3 C0 2.01 0 1.02 0 0 Z " fill="#2B1013" transform="translate(266,157)"/>
<path d="M0 0 C2.475 0.99 2.475 0.99 5 2 C4.67 2.99 4.34 3.98 4 5 C3.01 5 2.02 5 1 5 C0.67 5.66 0.34 6.32 0 7 C0 4.69 0 2.38 0 0 Z " fill="#0F0E05" transform="translate(382,111)"/>
<path d="M0 0 C3.33727786 1.17255709 5.77437487 2.18868404 8 5 C8 5.66 8 6.32 8 7 C6 7 6 7 4.5625 5.625 C4.046875 5.08875 3.53125 4.5525 3 4 C2.01 3.34 1.02 2.68 0 2 C0 1.34 0 0.68 0 0 Z " fill="#DC9372" transform="translate(299,38)"/>
<path d="M0 0 C1.32 0 2.64 0 4 0 C4 0.66 4 1.32 4 2 C3.01 2.66 2.02 3.32 1 4 C0.67 4.66 0.34 5.32 0 6 C-0.66 5.67 -1.32 5.34 -2 5 C-1.125 1.125 -1.125 1.125 0 0 Z " fill="#2B2B38" transform="translate(344,334)"/>
<path d="M0 0 C0 3.10551666 -0.5393715 4.35261084 -2 7 C-2.99 6.34 -3.98 5.68 -5 5 C-5 4.34 -5 3.68 -5 3 C-2.5 1.375 -2.5 1.375 0 0 Z " fill="#504C7C" transform="translate(56,195)"/>
<path d="M0 0 C0.33 0.99 0.66 1.98 1 3 C-0.98 4.32 -2.96 5.64 -5 7 C-5.66 6.67 -6.32 6.34 -7 6 C-4.69 4.02 -2.38 2.04 0 0 Z " fill="#4F5584" transform="translate(113,152)"/>
<path d="M0 0 C3.875 1.75 3.875 1.75 5 4 C2.36 4 -0.28 4 -3 4 C-2.01 2.68 -1.02 1.36 0 0 Z " fill="#F6E684" transform="translate(416,120)"/>
<path d="M0 0 C1.98 0 3.96 0 6 0 C6 0.66 6 1.32 6 2 C3.35261084 3.4606285 2.10551666 4 -1 4 C-0.67 2.68 -0.34 1.36 0 0 Z " fill="#F8ED6F" transform="translate(409,93)"/>
<path d="M0 0 C-1.65 1.32 -3.3 2.64 -5 4 C-5.66 3.67 -6.32 3.34 -7 3 C-6.67 2.01 -6.34 1.02 -6 0 C-3.50907189 -1.24546405 -2.58919267 -0.7767578 0 0 Z " fill="#6A2413" transform="translate(290,368)"/>
<path d="M0 0 C0.33 0.66 0.66 1.32 1 2 C0.06553465 4.03144641 -0.93224776 6.03533587 -2 8 C-2.66 7.67 -3.32 7.34 -4 7 C-2.92598892 4.08482708 -2.22189824 2.22189824 0 0 Z " fill="#1D0808" transform="translate(202,153)"/>
<path d="M0 0 C0.33 0.66 0.66 1.32 1 2 C-0.65 3.65 -2.3 5.3 -4 7 C-4.99 6.67 -5.98 6.34 -7 6 C-2.25 1.125 -2.25 1.125 0 0 Z " fill="#17161E" transform="translate(228,57)"/>
<path d="M0 0 C3.465 1.98 3.465 1.98 7 4 C3.98968256 4.93423645 3.13349732 5.04449911 0 4 C0 2.68 0 1.36 0 0 Z " fill="#0D0C18" transform="translate(309,35)"/>
<path d="" fill="#4C4C5A" transform="translate(0,0)"/>
<path d="" fill="#4F4F5A" transform="translate(0,0)"/>
<path d="" fill="#908E9A" transform="translate(0,0)"/>
<path d="" fill="#747185" transform="translate(0,0)"/>
<path d="" fill="#4B4953" transform="translate(0,0)"/>
<path d="" fill="#504D62" transform="translate(0,0)"/>
<path d="" fill="#4F4C5F" transform="translate(0,0)"/>
<path d="" fill="#4F4C61" transform="translate(0,0)"/>
<path d="" fill="#4F4C61" transform="translate(0,0)"/>
<path d="" fill="#4F4C61" transform="translate(0,0)"/>
<path d="" fill="#504959" transform="translate(0,0)"/>
</svg>
